<svg class="animated" id="freepik_stories-operating-system-upgrade" xmlns="http://www.w3.org/2000/svg" viewBox="0 0 500 500" version="1.1" xmlns:xlink="http://www.w3.org/1999/xlink" xmlns:svgjs="http://svgjs.com/svgjs"><style>svg#freepik_stories-operating-system-upgrade:not(.animated) .animable {opacity: 0;}svg#freepik_stories-operating-system-upgrade.animated #freepik--background-complete--inject-135 {animation: 1s 1 forwards cubic-bezier(.36,-0.01,.5,1.38) zoomIn;animation-delay: 0s;}svg#freepik_stories-operating-system-upgrade.animated #freepik--Floor--inject-135 {animation: 1s 1 forwards cubic-bezier(.36,-0.01,.5,1.38) fadeIn;animation-delay: 0s;}svg#freepik_stories-operating-system-upgrade.animated #freepik--Device--inject-135 {animation: 1s 1 forwards cubic-bezier(.36,-0.01,.5,1.38) slideLeft;animation-delay: 0s;}svg#freepik_stories-operating-system-upgrade.animated #freepik--Plant--inject-135 {animation: 1s 1 forwards cubic-bezier(.36,-0.01,.5,1.38) zoomOut;animation-delay: 0s;}svg#freepik_stories-operating-system-upgrade.animated #freepik--Character--inject-135 {animation: 1s 1 forwards cubic-bezier(.36,-0.01,.5,1.38) slideUp;animation-delay: 0s;}            @keyframes zoomIn {                0% {                    opacity: 0;                    transform: scale(0.5);                }                100% {                    opacity: 1;                    transform: scale(1);                }            }                    @keyframes fadeIn {                0% {                    opacity: 0;                }                100% {                    opacity: 1;                }            }                    @keyframes slideLeft {                0% {                    opacity: 0;                    transform: translateX(-30px);                }                100% {                    opacity: 1;                    transform: translateX(0);                }            }                    @keyframes zoomOut {                0% {                    opacity: 0;                    transform: scale(1.5);                }                100% {                    opacity: 1;                    transform: scale(1);                }            }                    @keyframes slideUp {                0% {                    opacity: 0;                    transform: translateY(30px);                }                100% {                    opacity: 1;                    transform: inherit;                }            }        </style><g id="freepik--background-complete--inject-135" class="animable" style="transform-origin: 248.304px 255.85px;"><path d="M81.44,116.49a25.71,25.71,0,0,1-5.25,9.06c-2.1,2.43-4.32,3.06-7.26,1.75a10.61,10.61,0,0,0-9.06-.14c-3.33,1.44-4.92.84-7.36-2.08a26.69,26.69,0,0,1-6.45-18.36c.12-4.32,1.69-8.18,5.46-10.7a9.13,9.13,0,0,1,9.42-.66,7,7,0,0,0,6.19.1,10.9,10.9,0,0,1,10.3.27,7.6,7.6,0,0,1,.82.52c2.35,1.73,2.37,2,.32,4a9.94,9.94,0,0,0,1.26,15.15Z" style="fill: rgb(224, 224, 224); transform-origin: 63.7417px 111.133px;" id="elyljd3yubaq" class="animable"></path><path d="M72.56,83.83c.8,4.48-4.16,10.4-8.37,9.59C63.22,88.22,69.21,83.27,72.56,83.83Z" style="fill: rgb(224, 224, 224); transform-origin: 68.3654px 88.6408px;" id="elfiewv7wx3ra" class="animable"></path><path d="M94.7,144.62a8.41,8.41,0,0,0,2.92-.62,7.75,7.75,0,0,0,4.76-6.6c0-7.51,0-18.36,0-31.77,0-6.71,0-14.06,0-21.95v-6c0-1,0-2.06,0-3.08a7.58,7.58,0,0,0-.73-2.94,7.67,7.67,0,0,0-4.58-4,9.26,9.26,0,0,0-3.17-.34h-61a7.6,7.6,0,0,0-7.54,6.78c-.08,1.21,0,2.49,0,3.73V92.57c0,9.66,0,19,0,27.84v13c0,1.05,0,2.09,0,3.12a8.14,8.14,0,0,0,.48,3,7.6,7.6,0,0,0,3.86,4.24,7.43,7.43,0,0,0,2.75.72c.95.06,1.92,0,2.87,0H51.27l31.78.07,8.64,0,2.25,0,.76,0s-.26,0-.76,0l-2.25,0-8.64,0-31.78.07H35.14c-1,0-1.9,0-2.89,0a8.08,8.08,0,0,1-2.88-.75,8,8,0,0,1-4.05-4.43,8.49,8.49,0,0,1-.5-3.09c0-1,0-2.07,0-3.12q0-6.32,0-13c0-8.87,0-18.18,0-27.84V76c0-.63,0-1.26,0-1.9a8,8,0,0,1,8-7.16l57.72,0h3.3a9.66,9.66,0,0,1,3.29.37,8,8,0,0,1,4.79,4.18,7.77,7.77,0,0,1,.76,3.09c0,1,0,2.06,0,3.09,0,2,0,4,0,6,0,7.89,0,15.24,0,21.95,0,13.42,0,24.27-.1,31.78a7.77,7.77,0,0,1-7.07,7.19Z" style="fill: rgb(224, 224, 224); transform-origin: 63.7487px 105.776px;" id="el9wx7apk0nsd" class="animable"></path><path d="M56.15,214.88c-4.91-.53-5-.58-4.94-5.28s.06-9.51.07-14.27c0-.87.08-1.45,1.19-1.44,7.58.11,15.17.17,22.75.26a5.78,5.78,0,0,1,.74.11q0,4.69,0,9.36c0,2.32,0,4.64,0,7,0,3.43-.72,4.15-4.15,4.32-.26,0-.53.06-1.07.13,0,2,.06,4,0,5.94a2.56,2.56,0,0,1-3.07,2.69,2.32,2.32,0,0,1-2.2-2.54c0-1.68,0-3.36,0-5,0-1-.36-1.38-1.33-1.32a12.51,12.51,0,0,1-1.62,0c-.86-.07-1.16.32-1.15,1.14q0,2.36,0,4.71c0,2-1,3-2.65,3s-2.6-1-2.62-3S56.15,216.84,56.15,214.88Z" style="fill: rgb(224, 224, 224); transform-origin: 63.5804px 208.821px;" id="elgmligls2g8i" class="animable"></path><path d="M71.7,179.38c-.63,1.15-1.31,2.49-1.92,3.61,5,2.41,6.38,6.18,6.15,9.64H51.3a11.47,11.47,0,0,1,6.45-9.71l-1.91-3.73.35-.2,2.14,3.67a14.36,14.36,0,0,1,10.89,0l2.08-3.5Z" style="fill: rgb(224, 224, 224); transform-origin: 63.627px 185.81px;" id="ely8wpj2vhi4a" class="animable"></path><path d="M82.55,202c0,1.89,0,3.78,0,5.67s-1,2.87-2.59,2.9a2.55,2.55,0,0,1-2.71-2.77c0-3.83,0-7.67.08-11.5a2.63,2.63,0,1,1,5.25.19c0,1.84,0,3.68,0,5.51Z" style="fill: rgb(224, 224, 224); transform-origin: 79.9149px 202.105px;" id="elkgxc795wokk" class="animable"></path><path d="M50,201.76c0,1.84.06,3.68,0,5.52-.1,2.34-2,3.7-3.79,2.71a2.72,2.72,0,0,1-1.37-1.8q-.12-6.15.11-12.31c.06-1.74,1-2.47,2.42-2.43a2.53,2.53,0,0,1,2.66,2.8c.06,1.84,0,3.68,0,5.51Z" style="fill: rgb(224, 224, 224); transform-origin: 47.4278px 201.881px;" id="elipix3b4x05q" class="animable"></path><path d="M94.64,240.09a8.77,8.77,0,0,0,2.92-.62,7.72,7.72,0,0,0,4.75-6.6c0-7.52,0-18.37,0-31.77,0-6.71,0-14.06,0-21.95q0-3,0-6c0-1,0-2,0-3.07a7.37,7.37,0,0,0-.73-2.94,7.65,7.65,0,0,0-4.57-4,9.32,9.32,0,0,0-3.17-.35H90.44l-57.71,0a7.82,7.82,0,0,0-3.58.9,7.52,7.52,0,0,0-4,5.88c-.09,1.2,0,2.49,0,3.73q0,7.47,0,14.72c0,9.66,0,19,0,27.84,0,4.43,0,8.76,0,13V232a8.17,8.17,0,0,0,.47,3,7.7,7.7,0,0,0,3.86,4.24,7.83,7.83,0,0,0,2.76.72c.94.05,1.92,0,2.87,0h5.6l10.53,0L83,240l8.64,0,2.24,0c.51,0,.77,0,.77,0l-.77,0-2.24,0-8.64,0-31.78.07H35.08c-1,0-1.9,0-2.89,0a7.73,7.73,0,0,1-2.89-.75,8,8,0,0,1-4.05-4.42,8.56,8.56,0,0,1-.5-3.09v-3.13c0-4.2,0-8.53,0-13,0-8.87,0-18.18,0-27.84v-16.6c0-.62,0-1.25,0-1.9A8,8,0,0,1,29,163.33a8.17,8.17,0,0,1,3.78-.94h61a9.6,9.6,0,0,1,3.28.36,8,8,0,0,1,4.8,4.19,7.94,7.94,0,0,1,.76,3.08c0,1.05,0,2.07,0,3.09q0,3.06,0,6c0,7.89,0,15.24,0,21.95,0,13.41,0,24.27-.09,31.78a7.85,7.85,0,0,1-4.89,6.67,8,8,0,0,1-2.18.52Z" style="fill: rgb(224, 224, 224); transform-origin: 63.6838px 201.23px;" id="ell3f0d2w2uf" class="animable"></path><path d="M81.48,296H62.43V282l19.05-2.78Z" style="fill: rgb(224, 224, 224); transform-origin: 71.955px 287.61px;" id="elwwv0qnp2bpb" class="animable"></path><path d="M62.38,297.91H81.45v16.54L62.38,312Z" style="fill: rgb(224, 224, 224); transform-origin: 71.915px 306.18px;" id="ela25q83ag2b9" class="animable"></path><path d="M60.32,282.1V296H45.76c0-3.82,0-7.53,0-11.24,0-.27.48-.72.78-.77C51.11,283.31,55.65,282.72,60.32,282.1Z" style="fill: rgb(224, 224, 224); transform-origin: 53.04px 289.05px;" id="eloqctnsf0ut9" class="animable"></path><path d="M45.93,297.86H60.34v13.8l-14.41-1.85Z" style="fill: rgb(224, 224, 224); transform-origin: 53.135px 304.76px;" id="elebeuax6eiml" class="animable"></path><path d="M94.58,335.55a8.24,8.24,0,0,0,2.92-.61,7.76,7.76,0,0,0,4.75-6.61c0-7.51,0-18.36,0-31.77,0-6.71,0-14.06,0-21.94,0-2,0-4,0-6,0-1,0-2.05,0-3.07a7.54,7.54,0,0,0-.73-2.94,7.64,7.64,0,0,0-4.58-4,9.26,9.26,0,0,0-3.17-.35h-3.3l-57.71,0a7.81,7.81,0,0,0-3.58.89,7.93,7.93,0,0,0-2.72,2.46,7.73,7.73,0,0,0-1.24,3.42c-.09,1.21,0,2.5-.05,3.73v14.73c0,9.65,0,19,0,27.84,0,4.43,0,8.76,0,13v3.13a8.2,8.2,0,0,0,.47,3,7.61,7.61,0,0,0,3.86,4.23,7.43,7.43,0,0,0,2.76.72c.94.06,1.92,0,2.86,0H51.15l31.77.07,8.64,0,2.25,0,.77,0-.77,0-2.25,0-8.64,0-31.77.06-10.53,0H35c-.95,0-1.9,0-2.89,0a7.95,7.95,0,0,1-6.93-5.18,8.47,8.47,0,0,1-.5-3.08v-3.13c0-4.2,0-8.53,0-13,0-8.88,0-18.19,0-27.84q0-7.25,0-14.73v-1.87c0-.62,0-1.25.05-1.9a8,8,0,0,1,8-7.16l57.71,0h3.3a9.92,9.92,0,0,1,3.29.37,8,8,0,0,1,4.8,4.19,7.89,7.89,0,0,1,.76,3.08c0,1.05,0,2.07,0,3.09v6c0,7.88,0,15.23,0,21.94,0,13.42,0,24.27-.1,31.79A7.86,7.86,0,0,1,97.53,335a8.08,8.08,0,0,1-2.19.52C94.83,335.56,94.58,335.55,94.58,335.55Z" style="fill: rgb(224, 224, 224); transform-origin: 63.6338px 296.593px;" id="el3u7osldokf9" class="animable"></path><path d="M130.7,84.94a2.58,2.58,0,1,1-2.58-2.57A2.58,2.58,0,0,1,130.7,84.94Z" style="fill: rgb(224, 224, 224); transform-origin: 128.12px 84.95px;" id="ell6l7a1xpq4" class="animable"></path><path d="M128,84.94a1.35,1.35,0,0,1-.35,0l-1,0L125,85a9.12,9.12,0,0,0-2.21.24,8,8,0,0,0-6.08,7c-.09,1.33,0,2.8,0,4.31,0,12.15,0,28.89.07,47.38s0,35.23-.07,47.39a9.67,9.67,0,0,1-3.17,7.41,9.5,9.5,0,0,1-5.64,2.43c-1.71.07-3,0-3.91,0l-1,0-.35,0,.35,0,1,0c.88,0,2.21,0,3.89-.09a9.37,9.37,0,0,0,8.46-9.64c0-12.16-.05-28.9-.08-47.39s.06-35.23.08-47.38c0-1.52,0-2.94.07-4.34a8.32,8.32,0,0,1,1.33-3.66,8.16,8.16,0,0,1,5-3.48,9.28,9.28,0,0,1,2.25-.2l1.66,0,1,0Z" style="fill: rgb(224, 224, 224); transform-origin: 115.32px 143.066px;" id="elc07xyi27izw" class="animable"></path><path d="M105.15,201.32a2.58,2.58,0,1,1-2.58-2.57A2.58,2.58,0,0,1,105.15,201.32Z" style="fill: rgb(224, 224, 224); transform-origin: 102.57px 201.33px;" id="elw76ju8gidh9" class="animable"></path><polygon points="184.75 442.81 184.75 470.83 225.72 470.83 270.92 470.83 270.92 442.81 184.75 442.81" style="fill: rgb(245, 245, 245); transform-origin: 227.835px 456.82px;" id="elf4yy642ssl8" class="animable"></polygon><polygon points="181.13 434.98 181.13 442.81 273.93 442.81 273.93 434.98 225.72 434.98 181.13 434.98" style="fill: rgb(224, 224, 224); transform-origin: 227.53px 438.895px;" id="elk3yi13vtq9i" class="animable"></polygon><polygon points="227.53 470.83 270.92 470.83 270.92 442.81 273.93 442.81 273.93 434.98 225.72 434.98 225.72 442.09 227.53 470.83" style="fill: rgb(224, 224, 224); transform-origin: 249.825px 452.905px;" id="el1dc8wnquq35" class="animable"></polygon><rect x="196.8" y="447.33" width="17.48" height="4.22" style="fill: rgb(224, 224, 224); transform-origin: 205.54px 449.44px;" id="elepkfo4h0fm6" class="animable"></rect><rect x="194.55" y="456.82" width="22.44" height="8.91" style="fill: rgb(255, 255, 255); transform-origin: 205.77px 461.275px;" id="elosvmwr9yh6f" class="animable"></rect><rect x="376.88" y="295.23" width="88.7" height="167.67" style="fill: rgb(224, 224, 224); transform-origin: 421.23px 379.065px;" id="ely8p9b4n35qp" class="animable"></rect><rect x="350.55" y="295.23" width="88.7" height="167.67" style="fill: rgb(245, 245, 245); transform-origin: 394.9px 379.065px;" id="elrn8vopiafcm" class="animable"></rect><path d="M432.72,329.75H356.59V303.17h76.13Zm-75.2-.94h74.27V304.1H357.52Z" style="fill: rgb(224, 224, 224); transform-origin: 394.655px 316.46px;" id="elv6q7b0reyqr" class="animable"></path><path d="M380.73,303.64h28.89a0,0,0,0,1,0,0V304a4.95,4.95,0,0,1-4.95,4.95h-19a4.95,4.95,0,0,1-4.95-4.95v-.35A0,0,0,0,1,380.73,303.64Z" style="fill: rgb(235, 235, 235); transform-origin: 395.17px 306.295px;" id="el9vg61lrw1s" class="animable"></path><path d="M432.72,363.51H356.59V336.93h76.13Zm-75.2-.94h74.27V337.86H357.52Z" style="fill: rgb(224, 224, 224); transform-origin: 394.655px 350.22px;" id="elc2cm2a57jl5" class="animable"></path><path d="M380.73,337.4h28.89a0,0,0,0,1,0,0v.35a4.95,4.95,0,0,1-4.95,4.95h-19a4.95,4.95,0,0,1-4.95-4.95v-.35A0,0,0,0,1,380.73,337.4Z" style="fill: rgb(235, 235, 235); transform-origin: 395.17px 340.05px;" id="el4svu5d1hkuw" class="animable"></path><path d="M432.72,397.27H356.59V370.69h76.13Zm-75.2-.94h74.27v-24.7H357.52Z" style="fill: rgb(224, 224, 224); transform-origin: 394.655px 383.98px;" id="elitudeuk2qsj" class="animable"></path><path d="M380.73,371.16h28.89a0,0,0,0,1,0,0v.35a4.95,4.95,0,0,1-4.95,4.95h-19a4.95,4.95,0,0,1-4.95-4.95v-.35A0,0,0,0,1,380.73,371.16Z" style="fill: rgb(235, 235, 235); transform-origin: 395.17px 373.81px;" id="elu8hmkbbrj7i" class="animable"></path><path d="M432.72,431H356.59V404.45h76.13Zm-75.2-.94h74.27v-24.7H357.52Z" style="fill: rgb(224, 224, 224); transform-origin: 394.655px 417.725px;" id="eljqw3i5k7xre" class="animable"></path><path d="M380.73,404.92h28.89a0,0,0,0,1,0,0v.35a4.95,4.95,0,0,1-4.95,4.95h-19a4.95,4.95,0,0,1-4.95-4.95v-.35A0,0,0,0,1,380.73,404.92Z" style="fill: rgb(235, 235, 235); transform-origin: 395.17px 407.57px;" id="el7i14ec8y53" class="animable"></path><rect x="346.62" y="288.96" width="96.34" height="8.35" style="fill: rgb(235, 235, 235); transform-origin: 394.79px 293.135px;" id="el2dg8fso8bv3" class="animable"></rect><rect x="442.96" y="288.96" width="28.97" height="8.35" style="fill: rgb(224, 224, 224); transform-origin: 457.445px 293.135px;" id="elvwdts4ovtd" class="animable"></rect><rect x="350.55" y="462.9" width="4.66" height="8.56" style="fill: rgb(224, 224, 224); transform-origin: 352.88px 467.18px;" id="el2c444nml3m7" class="animable"></rect><rect x="379.36" y="462.9" width="4.66" height="8.56" style="fill: rgb(224, 224, 224); transform-origin: 381.69px 467.18px;" id="eluolyo6c33cr" class="animable"></rect><rect x="431.96" y="462.9" width="4.66" height="8.56" style="fill: rgb(224, 224, 224); transform-origin: 434.29px 467.18px;" id="elm10bfi7r1w" class="animable"></rect><rect x="458.27" y="462.9" width="4.66" height="8.56" style="fill: rgb(224, 224, 224); transform-origin: 460.6px 467.18px;" id="elqw2q244pj1" class="animable"></rect><polygon points="432.68 266.66 441.66 289.63 436.08 289.6 431.6 275.49 432.68 266.66" style="fill: rgb(224, 224, 224); transform-origin: 436.63px 278.145px;" id="elhdt7mv3vfzq" class="animable"></polygon><polygon points="402.02 245.44 398.93 289.45 430.8 290.11 434.38 245.44 402.02 245.44" style="fill: rgb(235, 235, 235); transform-origin: 416.655px 267.775px;" id="el19c78dphm23" class="animable"></polygon><polygon points="405.21 248.98 402.64 285.61 426.32 286.72 429.63 248.76 405.21 248.98" style="fill: rgb(250, 250, 250); transform-origin: 416.135px 267.74px;" id="elofomu05r6u" class="animable"></polygon><polygon points="410.4 254.16 408.48 279.91 421.55 279.91 423.85 254.16 410.4 254.16" style="fill: rgb(224, 224, 224); transform-origin: 416.165px 267.035px;" id="el1qticvkgzyb" class="animable"></polygon><polygon points="467.28 40.24 467.28 135.06 331.09 135.06 326.19 40.9 467.28 40.24" style="fill: rgb(224, 224, 224); transform-origin: 396.735px 87.65px;" id="elgs3f6vbwu9d" class="animable"></polygon><g id="el2dsgvxn0amx"><rect x="347.3" y="19.79" width="93.96" height="136.19" style="fill: rgb(255, 255, 255); transform-origin: 394.28px 87.885px; transform: rotate(-90deg);" class="animable"></rect></g><path d="M463,135.51H325.54V40.26H463Zm-136.19-1.3h134.9V41.55H326.83Z" style="fill: rgb(224, 224, 224); transform-origin: 394.27px 87.885px;" id="eltl6gqtuupzm" class="animable"></path><rect x="340.94" y="52.58" width="106.69" height="70.61" style="fill: rgb(255, 255, 255); transform-origin: 394.285px 87.885px;" id="elk5d155edqe" class="animable"></rect><path d="M447.62,52.58l-.52,0h-1.52l-5.86,0-22,.08-76.8.16.31-.31c0,21.57,0,45.47,0,70.6h0l-.33-.34,106.68.07-.26.27c.05-21.49.1-39.11.14-51.38,0-6.13.05-10.92.07-14.2,0-1.63,0-2.87,0-3.74s0-1.29,0-1.29,0,.41,0,1.24,0,2.08,0,3.68c0,3.27,0,8,.07,14.15,0,12.3.08,30,.14,51.54v.26h-.27l-106.68.07h-.34v-.33h0c0-25.13,0-49,0-70.6v-.31h.31l77,.15,21.91.08,5.8,0,1.48,0A4.45,4.45,0,0,1,447.62,52.58Z" style="fill: rgb(224, 224, 224); transform-origin: 394.095px 87.82px;" id="el7xowvspwso4" class="animable"></path><path d="M326.19,40.64a11.69,11.69,0,0,1,2.34,1.52c1.39,1,3.29,2.43,5.34,4.07s3.85,3.19,5.12,4.35a10.79,10.79,0,0,1,1.95,2c-.13.14-3.4-2.56-7.49-5.83S326.07,40.79,326.19,40.64Z" style="fill: rgb(224, 224, 224); transform-origin: 333.563px 46.6126px;" id="elqacfwsofmih" class="animable"></path><path d="M462.37,40.9c.12.15-3.09,2.88-7.16,6.1s-7.47,5.72-7.59,5.58,3.1-2.88,7.17-6.1S462.26,40.76,462.37,40.9Z" style="fill: rgb(224, 224, 224); transform-origin: 454.995px 46.74px;" id="elwkgziimphld" class="animable"></path><path d="M462.27,134.87l-15.19-12.3" style="fill: rgb(255, 255, 255); transform-origin: 454.675px 128.72px;" id="elddpnc1lxeug" class="animable"></path><path d="M447.08,122.57c.12-.15,3.61,2.49,7.81,5.89s7.49,6.27,7.38,6.41-3.61-2.49-7.81-5.89S447,122.71,447.08,122.57Z" style="fill: rgb(224, 224, 224); transform-origin: 454.676px 128.72px;" id="elmi0fmxidjpb" class="animable"></path><path d="M326.19,134.86c-.12-.15,3.06-2.85,7.09-6s7.39-5.65,7.51-5.51-3.06,2.85-7.09,6S326.3,135,326.19,134.86Z" style="fill: rgb(224, 224, 224); transform-origin: 333.49px 129.105px;" id="elfdi7kcf2ty6" class="animable"></path><g id="el0ylyxwyiktfe"><rect x="384.34" y="52.83" width="23.64" height="67.13" style="fill: rgb(224, 224, 224); transform-origin: 396.16px 86.395px; transform: rotate(-90deg);" class="animable"></rect></g></g><g id="freepik--Floor--inject-135" class="animable" style="transform-origin: 249px 471.47px;"><path d="M465.63,471.47c0,.14-97,.26-216.62.26s-216.64-.12-216.64-.26,97-.26,216.64-.26S465.63,471.32,465.63,471.47Z" style="fill: rgb(38, 50, 56); transform-origin: 249px 471.47px;" id="eltwaolp9v2q9" class="animable"></path></g><g id="freepik--Device--inject-135" class="animable" style="transform-origin: 216.125px 236.24px;"><path d="M277.23,416.21l-122.3-.08a26.63,26.63,0,0,1-26.62-26.64l.06-306.59A26.64,26.64,0,0,1,155,56.27l122.29.07A26.65,26.65,0,0,1,303.94,83l-.06,306.58A26.64,26.64,0,0,1,277.23,416.21Z" style="fill: rgb(38, 50, 56); transform-origin: 216.125px 236.24px;" id="elpxapb5u034o" class="animable"></path><path d="M276.91,67.28l-23.71,0a5.89,5.89,0,0,0-5.75,6v4.3a5.89,5.89,0,0,1-5.75,6l-46.22,0a5.9,5.9,0,0,1-5.76-6V73.24a5.89,5.89,0,0,0-5.75-6H154.87A18.65,18.65,0,0,0,136.2,85.86l-.06,299.25a18.67,18.67,0,0,0,18.65,18.66l122,.07a18.65,18.65,0,0,0,18.67-18.65l.06-299.25A18.66,18.66,0,0,0,276.91,67.28Z" style="fill: rgb(255, 255, 255); transform-origin: 215.83px 235.54px;" id="elb070k0wr01e" class="animable"></path><path d="M295.12,117.22c0,.08-35.58.15-79.46.15s-79.47-.07-79.47-.15,35.57-.15,79.47-.15S295.12,117.13,295.12,117.22Z" style="fill: rgb(235, 235, 235); transform-origin: 215.655px 117.22px;" id="elaycvsh2tppl" class="animable"></path><path d="M158.32,103a.52.52,0,0,1-.33-.12l-4.65-4.08a.51.51,0,0,1-.16-.37.47.47,0,0,1,.17-.37L158,94.2a.49.49,0,0,1,.69.07.47.47,0,0,1-.06.68l-4.21,3.5,4.22,3.7a.51.51,0,0,1,.05.7A.5.5,0,0,1,158.32,103Z" style="fill: rgb(38, 50, 56); transform-origin: 155.994px 98.5448px;" id="el11wu7ylkw3q" class="animable"></path><path d="M251.49,99.69c0,.14-13.43.26-30,.26s-30-.12-30-.26,13.42-.25,30-.25S251.49,99.55,251.49,99.69Z" style="fill: rgb(38, 50, 56); transform-origin: 221.49px 99.695px;" id="elfc57ilbnoot" class="animable"></path><path d="M191.7,251.59l.35-.7a4.21,4.21,0,0,0,2.82,1c1.6,0,2.3-.67,2.3-1.51,0-2.35-5.26-.91-5.26-4.07,0-1.26,1-2.34,3.15-2.34a4.9,4.9,0,0,1,2.65.75l-.31.72a4.44,4.44,0,0,0-2.34-.7c-1.56,0-2.26.69-2.26,1.55,0,2.34,5.26.92,5.26,4,0,1.25-1,2.33-3.19,2.33A4.63,4.63,0,0,1,191.7,251.59Z" style="fill: rgb(38, 50, 56); transform-origin: 194.88px 248.298px;" id="el82mhoge2iq3" class="animable"></path><path d="M202.77,249.67v3h-.89v-3l-3.42-5.59h1l2.93,4.8,2.93-4.8h.9Z" style="fill: rgb(38, 50, 56); transform-origin: 202.34px 248.375px;" id="el1cvwbxjbn1x" class="animable"></path><path d="M206.59,251.59l.35-.7a4.21,4.21,0,0,0,2.82,1c1.6,0,2.3-.67,2.3-1.51,0-2.35-5.26-.91-5.26-4.07,0-1.26,1-2.34,3.15-2.34a4.9,4.9,0,0,1,2.65.75l-.31.72a4.44,4.44,0,0,0-2.34-.7c-1.56,0-2.26.69-2.26,1.55,0,2.34,5.26.92,5.26,4,0,1.25-1,2.33-3.19,2.33A4.63,4.63,0,0,1,206.59,251.59Z" style="fill: rgb(38, 50, 56); transform-origin: 209.77px 248.298px;" id="el6ir3roifcoh" class="animable"></path><path d="M216.45,244.86h-3v-.78h6.91v.78h-3v7.77h-.91Z" style="fill: rgb(38, 50, 56); transform-origin: 216.905px 248.355px;" id="el4i7gwqrbpql" class="animable"></path><path d="M227.84,251.84v.79h-6v-8.55h5.86v.78h-5v3h4.42v.77H222.7v3.17Z" style="fill: rgb(38, 50, 56); transform-origin: 224.84px 248.355px;" id="elx3u5isf8ae" class="animable"></path><path d="M238.84,244.08v8.55H238v-6.84l-3.36,5.75h-.42l-3.36-5.71v6.8H230v-8.55h.75l3.71,6.34,3.67-6.34Z" style="fill: rgb(38, 50, 56); transform-origin: 234.42px 248.355px;" id="el4idfbuhs8rs" class="animable"></path><path d="M184.63,263.61v-5h2.07v4.94c0,1.71.74,2.41,2,2.41s2-.7,2-2.41v-4.94h2.05v5c0,2.64-1.51,4.1-4.06,4.1S184.63,266.25,184.63,263.61Z" style="fill: rgb(38, 50, 56); transform-origin: 188.69px 263.16px;" id="elfrwjv90rxqf" class="animable"></path><path d="M202.56,261.84c0,2-1.5,3.24-3.89,3.24h-1.81v2.47h-2.07v-9h3.88C201.06,258.59,202.56,259.83,202.56,261.84Zm-2.1,0c0-1-.64-1.56-1.91-1.56h-1.69v3.11h1.69C199.82,263.39,200.46,262.82,200.46,261.84Z" style="fill: rgb(38, 50, 56); transform-origin: 198.675px 263.05px;" id="elabzbyeftfkt" class="animable"></path><path d="M210.21,262.93h1.9v3.64a6.2,6.2,0,0,1-3.62,1.14,4.64,4.64,0,1,1,0-9.27,4.77,4.77,0,0,1,3.75,1.55l-1.33,1.23a3,3,0,0,0-2.31-1,2.87,2.87,0,1,0,0,5.74,3.29,3.29,0,0,0,1.61-.38Z" style="fill: rgb(38, 50, 56); transform-origin: 207.937px 263.075px;" id="elg95mzy0q7qa" class="animable"></path><path d="M219.74,267.55,218,265.06H216.1v2.49H214v-9h3.88c2.39,0,3.89,1.24,3.89,3.25a2.91,2.91,0,0,1-1.85,2.83l2,2.88Zm-2-7.27H216.1v3.13h1.69c1.27,0,1.91-.59,1.91-1.57S219.06,260.28,217.79,260.28Z" style="fill: rgb(38, 50, 56); transform-origin: 217.96px 263.05px;" id="eltndzevsh1s8" class="animable"></path><path d="M229.34,265.63h-4.16l-.8,1.92h-2.12l4-9h2.05l4,9h-2.18Zm-.66-1.57-1.42-3.43-1.42,3.43Z" style="fill: rgb(38, 50, 56); transform-origin: 227.285px 263.05px;" id="elpwvv1l7l6u" class="animable"></path><path d="M233.24,258.59h4.07c2.93,0,4.94,1.77,4.94,4.48s-2,4.48-4.94,4.48h-4.07Zm4,7.26a2.78,2.78,0,1,0,0-5.56h-1.9v5.56Z" style="fill: rgb(38, 50, 56); transform-origin: 237.745px 263.07px;" id="elvyywig74ugm" class="animable"></path><path d="M250.75,265.89v1.66h-6.94v-9h6.77v1.67h-4.71v1.94H250v1.61h-4.16v2.08Z" style="fill: rgb(38, 50, 56); transform-origin: 247.28px 263.05px;" id="el2hedxpitvy2" class="animable"></path><path d="M190.33,330.36a3.12,3.12,0,0,1,3.26-3.16,3,3,0,0,1,2.27.91l-.41.41a2.49,2.49,0,0,0-1.84-.73,2.58,2.58,0,1,0,0,5.15,2.43,2.43,0,0,0,1.84-.75l.41.42a3,3,0,0,1-2.28.91A3.12,3.12,0,0,1,190.33,330.36Z" style="fill: rgb(38, 50, 56); transform-origin: 193.095px 330.36px;" id="el7bnzkavxt1d" class="animable"></path><path d="M202.46,327.25v6.22h-.65V330.6h-3.89v2.87h-.65v-6.22h.65V330h3.89v-2.78Z" style="fill: rgb(38, 50, 56); transform-origin: 199.865px 330.345px;" id="elslk44dxyi6m" class="animable"></path><path d="M208.88,332.9v.57h-4.4v-6.22h4.27v.57h-3.61V330h3.22v.56h-3.22v2.31Z" style="fill: rgb(38, 50, 56); transform-origin: 206.68px 330.36px;" id="elpcuezn0uc3" class="animable"></path><path d="M209.84,330.36a3.12,3.12,0,0,1,3.26-3.16,3,3,0,0,1,2.27.91l-.42.41a2.45,2.45,0,0,0-1.83-.73,2.58,2.58,0,1,0,0,5.15,2.39,2.39,0,0,0,1.83-.75l.42.42a3,3,0,0,1-2.28.91A3.11,3.11,0,0,1,209.84,330.36Z" style="fill: rgb(38, 50, 56); transform-origin: 212.605px 330.36px;" id="elz4b2kuzzcp9" class="animable"></path><path d="M218.7,330.55l-1.27,1.29v1.63h-.66v-6.22h.66V331l3.65-3.76h.75l-2.69,2.82,2.88,3.4h-.78Z" style="fill: rgb(38, 50, 56); transform-origin: 219.395px 330.355px;" id="eltsqzsiwzjo" class="animable"></path><path d="M223.09,327.25h.65v6.22h-.65Z" style="fill: rgb(38, 50, 56); transform-origin: 223.415px 330.36px;" id="el4nvx7p10wmm" class="animable"></path><path d="M231,327.25v6.22h-.54l-4-5v5h-.65v-6.22h.54l4,5.05v-5.05Z" style="fill: rgb(38, 50, 56); transform-origin: 228.405px 330.36px;" id="el7ytrtkg1ejr" class="animable"></path><path d="M237.36,330.36H238v2.37a3.38,3.38,0,0,1-2.28.79,3.16,3.16,0,1,1,0-6.32,3.05,3.05,0,0,1,2.31.9l-.41.42a2.52,2.52,0,0,0-1.87-.73,2.58,2.58,0,1,0,0,5.15,2.66,2.66,0,0,0,1.62-.48Z" style="fill: rgb(38, 50, 56); transform-origin: 235.295px 330.359px;" id="elj9dng1n6ge" class="animable"></path><path d="M239.39,333a.48.48,0,1,1,.48.48A.48.48,0,0,1,239.39,333Z" style="fill: rgb(38, 50, 56); transform-origin: 239.87px 333px;" id="elxjasf1h9quq" class="animable"></path><path d="M241.28,333a.47.47,0,0,1,.47-.48.47.47,0,0,1,.48.48.48.48,0,0,1-.48.48A.47.47,0,0,1,241.28,333Z" style="fill: rgb(38, 50, 56); transform-origin: 241.755px 333px;" id="eljzhthkd3do" class="animable"></path><path d="M243.16,333a.47.47,0,0,1,.47-.48.47.47,0,0,1,.48.48.48.48,0,0,1-.48.48A.47.47,0,0,1,243.16,333Z" style="fill: rgb(38, 50, 56); transform-origin: 243.635px 333px;" id="elcvdfklvtfvo" class="animable"></path><path d="M202.68,168.4a25.57,25.57,0,0,1,6.25-2.71l1.29-6.19,10.45-.18,1.5,6.14a25.26,25.26,0,0,1,6.34,2.49l5.29-3.46,7.51,7.26-3.27,5.4a25.43,25.43,0,0,1,2.72,6.25l6.18,1.28.18,10.45L241,196.64a25.44,25.44,0,0,1-2.5,6.34l3.47,5.28-7.26,7.52-5.4-3.28a25.6,25.6,0,0,1-6.25,2.72l-1.29,6.19-10.45.18-1.5-6.14a25.65,25.65,0,0,1-6.34-2.49l-5.28,3.46-7.52-7.26,3.27-5.4a25.82,25.82,0,0,1-2.72-6.25L185,196.22l-.18-10.44,6.13-1.51a25.44,25.44,0,0,1,2.5-6.34L190,172.65l7.26-7.52,5.4,3.27Zm5.57,13.92a11.22,11.22,0,1,0,15.86-.27A11.22,11.22,0,0,0,208.25,182.32Z" style="fill: rgb(255, 114, 94); transform-origin: 215.97px 190.455px;" id="el4fs1b75m0mg" class="animable"></path><path d="M252.18,139.67a11,11,0,0,1,3-.11l1.54-2.35,4.36,1.64-.38,2.78A11.44,11.44,0,0,1,263,143.7l2.75-.57,1.92,4.24-2.23,1.69a11.51,11.51,0,0,1,.1,3l2.35,1.54L266.21,158l-2.79-.39a11.14,11.14,0,0,1-2.07,2.22l.57,2.75-4.23,1.93-1.7-2.24a11.44,11.44,0,0,1-3,.1l-1.55,2.35-4.35-1.63.38-2.78a11.76,11.76,0,0,1-2.22-2.07l-2.75.57-1.93-4.24,2.24-1.7a11.42,11.42,0,0,1-.1-3l-2.35-1.54,1.63-4.36,2.79.38a11.34,11.34,0,0,1,2.06-2.21l-.56-2.76,4.23-1.92,1.7,2.24Zm0,6.67a5,5,0,1,0,6.61,2.48A5,5,0,0,0,252.21,146.34Z" style="fill: rgb(255, 114, 94); transform-origin: 254.125px 150.965px;" id="elllucyvo856" class="animable"></path><path d="M174.8,152.22a9.69,9.69,0,0,1,2.11-1.58l-.07-2.44,3.91-1,1.11,2.17a9.75,9.75,0,0,1,2.61.38l1.68-1.78,3.47,2.06-.75,2.32a10.38,10.38,0,0,1,1.58,2.11l2.44-.07,1,3.92-2.17,1.11a10,10,0,0,1-.37,2.6l1.77,1.68-2.06,3.47-2.32-.75a9.69,9.69,0,0,1-2.11,1.58l.07,2.44-3.91,1-1.11-2.17a9.75,9.75,0,0,1-2.61-.38l-1.68,1.78-3.47-2.06.75-2.32a10.38,10.38,0,0,1-1.58-2.11l-2.44.07-1-3.92,2.18-1.11a10,10,0,0,1,.37-2.6l-1.77-1.68,2.06-3.47,2.32.75Zm3.33,4.73a4.33,4.33,0,1,0,5.94-1.51A4.34,4.34,0,0,0,178.13,157Z" style="fill: rgb(255, 114, 94); transform-origin: 181.77px 159.32px;" id="elnrk9fqsjug" class="animable"></path><rect x="157.33" y="294.64" width="119.77" height="23.79" rx="11.22" style="fill: rgb(245, 245, 245); transform-origin: 217.215px 306.535px;" id="eli6r9teifzi" class="animable"></rect><rect x="157.33" y="294.64" width="66.58" height="23.79" rx="11.22" style="fill: rgb(255, 114, 94); transform-origin: 190.62px 306.535px;" id="elzocrjlwkb1" class="animable"></rect><path d="M252.55,308.27c0,1.24-.85,2.18-2.58,2.18a3.55,3.55,0,0,1-2.59-1l.28-.41a3.08,3.08,0,0,0,2.3.91c1.36,0,2.06-.69,2.06-1.67s-.65-1.69-2.65-1.69h-1.49l.39-3.57h3.91v.48h-3.46l-.28,2.6h1.05C251.73,306.11,252.55,307,252.55,308.27Z" style="fill: rgb(255, 114, 94); transform-origin: 249.965px 306.736px;" id="elbv8gj6ynnih" class="animable"></path><path d="M258.38,308.27c0,1.24-.85,2.18-2.58,2.18a3.55,3.55,0,0,1-2.59-1l.27-.41a3.12,3.12,0,0,0,2.31.91c1.36,0,2-.69,2-1.67s-.64-1.69-2.64-1.69h-1.49l.39-3.57H258v.48h-3.45l-.29,2.6h1.06C257.56,306.11,258.38,307,258.38,308.27Z" style="fill: rgb(255, 114, 94); transform-origin: 255.795px 306.736px;" id="elidvpbngql5" class="animable"></path><path d="M259.18,305c0-1.2.67-2,1.63-2s1.63.79,1.63,2-.68,2-1.63,2S259.18,306.18,259.18,305Zm2.86,0c0-1-.5-1.63-1.23-1.63s-1.23.62-1.23,1.63.5,1.63,1.23,1.63S262,306,262,305Zm3.26-2h.45l-5,7.37h-.45Zm-1.71,5.42c0-1.2.67-2,1.63-2s1.62.79,1.62,2-.66,2-1.62,2S263.59,309.65,263.59,308.45Zm2.85,0c0-1-.5-1.63-1.22-1.63s-1.24.61-1.24,1.63.5,1.63,1.24,1.63S266.44,309.46,266.44,308.45Z" style="fill: rgb(255, 114, 94); transform-origin: 263.01px 306.71px;" id="ele3q0ox7573" class="animable"></path><g id="elrl8bv0q44x"><g style="opacity: 0.2; transform-origin: 184.8px 306.39px;" class="animable"><polygon points="186.29 294.64 177.34 318.14 183.92 318.14 192.26 294.64 186.29 294.64" style="fill: rgb(255, 255, 255); transform-origin: 184.8px 306.39px;" id="elmz3xm0jghv" class="animable"></polygon></g></g><g id="elm8m8oi5j6v"><g style="opacity: 0.2; transform-origin: 200.945px 306.39px;" class="animable"><polygon points="202.44 294.64 193.48 318.14 200.06 318.14 208.41 294.64 202.44 294.64" style="fill: rgb(255, 255, 255); transform-origin: 200.945px 306.39px;" id="elu3psvsup4sp" class="animable"></polygon></g></g><g id="el1xotis3n5px"><g style="opacity: 0.2; transform-origin: 216.255px 307.35px;" class="animable"><path d="M218.25,296.41l-8.33,21.88h3.92a15,15,0,0,0,3-1l5.75-16.18A12.67,12.67,0,0,0,218.25,296.41Z" style="fill: rgb(255, 255, 255); transform-origin: 216.255px 307.35px;" id="elt7xluugec4d" class="animable"></path></g></g><g id="els0l2ojuum3q"><g style="opacity: 0.2; transform-origin: 169.47px 306.395px;" class="animable"><path d="M170.61,294.64l-8.24,21.61a11.81,11.81,0,0,0,5.86,1.9l8.34-23.51Z" style="fill: rgb(255, 255, 255); transform-origin: 169.47px 306.395px;" id="el27zpj5mlw0yi" class="animable"></path></g></g><path d="M265.88,318.43a17.24,17.24,0,0,0,2.68-.39,11.16,11.16,0,0,0,6.28-4.26,11,11,0,0,0,2-5.13,19.86,19.86,0,0,0,.07-3.2,10.55,10.55,0,0,0-.66-3.36,11,11,0,0,0-8.64-7.12,30.22,30.22,0,0,0-4.4-.15l-94.69.08a12,12,0,0,0-3.32.52,11,11,0,0,0-3,1.49,10.85,10.85,0,0,0-4,5.19c-1.32,4.12-.89,9.09,2,12.29a11,11,0,0,0,5.26,3.36c2,.61,4.15.39,6.25.43h12.3l42.57.06,28.7.08,7.8.05,2,0,.69,0-.69,0-2,0-7.8,0-28.7.08-42.57.06H168.62a11.81,11.81,0,0,1-3.22-.45,11.46,11.46,0,0,1-8.22-9.57,21.21,21.21,0,0,1-.08-3.38,11.1,11.1,0,0,1,.68-3.36,11.48,11.48,0,0,1,4.17-5.44,12.06,12.06,0,0,1,3.13-1.56,12.82,12.82,0,0,1,3.48-.54l94.69.08a29.81,29.81,0,0,1,4.45.16,11.43,11.43,0,0,1,4,1.46,11.27,11.27,0,0,1,4.87,5.91c1.43,4.66.59,9.21-1.55,11.91a11.2,11.2,0,0,1-6.42,4.24,7.58,7.58,0,0,1-1.16.21,4.74,4.74,0,0,1-.85.07C266.12,318.44,265.88,318.43,265.88,318.43Z" style="fill: rgb(38, 50, 56); transform-origin: 217.173px 306.36px;" id="elvl9n0aggek" class="animable"></path><path d="M173.14,380.38v8a.88.88,0,0,1-1.35.75l-6.3-4a.88.88,0,0,1,0-1.49l6.3-4A.88.88,0,0,1,173.14,380.38Z" style="fill: rgb(224, 224, 224); transform-origin: 169.109px 384.385px;" id="elm5eqhhdpkf" class="animable"></path><path d="M224.89,384.3a5.52,5.52,0,1,1-5.52-5.52A5.53,5.53,0,0,1,224.89,384.3Z" style="fill: rgb(224, 224, 224); transform-origin: 219.37px 384.3px;" id="eluk9375kx4i" class="animable"></path><rect x="264.54" y="379.5" width="10.19" height="10.19" rx="1.87" style="fill: rgb(224, 224, 224); transform-origin: 269.635px 384.595px;" id="elux1i37ah759" class="animable"></rect><path d="M280.24,96.63A1.76,1.76,0,1,1,282,94.87,1.76,1.76,0,0,1,280.24,96.63Z" style="fill: rgb(38, 50, 56); transform-origin: 280.24px 94.87px;" id="el5c8qu5qkbs5" class="animable"></path><path d="M280.24,101.71A1.76,1.76,0,1,1,282,100,1.76,1.76,0,0,1,280.24,101.71Z" style="fill: rgb(38, 50, 56); transform-origin: 280.241px 99.95px;" id="elapuqr3o67s" class="animable"></path><path d="M280.24,106.78A1.76,1.76,0,1,1,282,105,1.76,1.76,0,0,1,280.24,106.78Z" style="fill: rgb(38, 50, 56); transform-origin: 280.24px 105.02px;" id="el90pjgwv6pwv" class="animable"></path></g><g id="freepik--Plant--inject-135" class="animable" style="transform-origin: 82.8px 416.988px;"><path d="M86.08,400.68c-.55-2.41-1.73-5.26-4.18-5.5a4.11,4.11,0,0,0-3.66,2,8.62,8.62,0,0,0-1.3,4.16,110.82,110.82,0,0,0,2.67,31.15l9,.77A107.6,107.6,0,0,0,86.08,400.68Z" style="fill: rgb(69, 90, 100); transform-origin: 82.8391px 414.219px;" id="eldygor2uxcii" class="animable"></path><path d="M81.9,395.18a8.21,8.21,0,0,0-.88,1.2,8.5,8.5,0,0,0-.76,3.95c0,1.72,0,3.8.15,6.08s.29,4.8.58,7.42c.57,5.26,1.32,10,1.76,13.44.23,1.72.39,3.12.48,4.08,0,.45.07.82.09,1.12a1.66,1.66,0,0,1,0,.39,2.09,2.09,0,0,1-.09-.38c0-.3-.1-.67-.17-1.11-.15-1-.36-2.39-.61-4.06-.51-3.43-1.31-8.16-1.88-13.43-.29-2.64-.47-5.16-.55-7.46,0-1.14,0-2.24-.06-3.26s0-2,0-2.84a8.29,8.29,0,0,1,.91-4A3.4,3.4,0,0,1,81.9,395.18Z" style="fill: rgb(38, 50, 56); transform-origin: 81.6324px 414.02px;" id="eldkrowfkzpfm" class="animable"></path><path d="M86.71,397.6c.06.1-.44.51-1.11.92s-1.27.67-1.33.57.44-.51,1.11-.92S86.65,397.5,86.71,397.6Z" style="fill: rgb(38, 50, 56); transform-origin: 85.49px 398.345px;" id="elkjgd71q6olg" class="animable"></path><path d="M88.66,404.8c0,.11-.72.2-1.6,0s-1.52-.53-1.48-.63.72.06,1.56.22S88.67,404.68,88.66,404.8Z" style="fill: rgb(38, 50, 56); transform-origin: 87.1192px 404.529px;" id="eleano7h73n58" class="animable"></path><path d="M77.55,405.43c0,.11-.67.29-1.53.27s-1.54-.22-1.52-.33a4.12,4.12,0,0,1,1.53-.08C76.85,405.31,77.53,405.31,77.55,405.43Z" style="fill: rgb(38, 50, 56); transform-origin: 76.0248px 405.477px;" id="elut7ezqo2th" class="animable"></path><path d="M79.06,398.91c0,.11-.69.07-1.4-.34s-1.08-.95-1-1,.56.3,1.21.67S79.08,398.79,79.06,398.91Z" style="fill: rgb(38, 50, 56); transform-origin: 77.8549px 398.264px;" id="el0xtozil07vhr" class="animable"></path><path d="M89,412.38c-.07.09-.73-.29-1.48-.85s-1.29-1.09-1.22-1.19.73.3,1.47.86S89,412.29,89,412.38Z" style="fill: rgb(38, 50, 56); transform-origin: 87.6469px 411.359px;" id="el7vft3dvgj2r" class="animable"></path><path d="M83.63,406.18c-.1.05-.46-.45-.8-1.12s-.54-1.26-.44-1.31.46.45.81,1.12S83.74,406.13,83.63,406.18Z" style="fill: rgb(38, 50, 56); transform-origin: 83.0127px 404.965px;" id="el5umopbp253c" class="animable"></path><path d="M82.94,414.53c-.1,0,.09-.73.44-1.55s.72-1.43.82-1.38-.09.74-.44,1.55S83.05,414.58,82.94,414.53Z" style="fill: rgb(38, 50, 56); transform-origin: 83.57px 413.065px;" id="elwn1x01ml78l" class="animable"></path><path d="M85.05,423.55a4.45,4.45,0,0,1-.84-1.65,4.25,4.25,0,0,1-.46-1.8c.11,0,.49.7.84,1.65A4.28,4.28,0,0,1,85.05,423.55Z" style="fill: rgb(38, 50, 56); transform-origin: 84.4px 421.825px;" id="elcbha27g7r1" class="animable"></path><path d="M78.26,430.08c-.08-.08.32-.6.89-1.15s1.09-.93,1.17-.85-.32.6-.89,1.15S78.34,430.16,78.26,430.08Z" style="fill: rgb(38, 50, 56); transform-origin: 79.29px 429.08px;" id="elsk4na6yupto" class="animable"></path><path d="M78.06,417.15c0,.11-.6.06-1.26-.12s-1.18-.41-1.15-.52.59-.05,1.26.12S78.09,417,78.06,417.15Z" style="fill: rgb(38, 50, 56); transform-origin: 76.855px 416.831px;" id="el93oo5q0bwrb" class="animable"></path><path d="M94.86,402.77c-.08.09-.65-.31-1.27-.89s-1.07-1.11-1-1.19.65.31,1.27.89S94.94,402.69,94.86,402.77Z" style="fill: rgb(38, 50, 56); transform-origin: 93.7259px 401.731px;" id="elzoyeqyoqjp" class="animable"></path><path d="M114.82,377.08a21,21,0,0,0-.08-7.55c-.63-2.45-2.32-4.78-4.75-5.47-2.78-.78-5.79.79-7.55,3.09s-2.5,5.18-3.16,8a288.93,288.93,0,0,0-7.75,59.06L103,436.63C109.49,416.29,112.39,398.31,114.82,377.08Z" style="fill: rgb(69, 90, 100); transform-origin: 103.327px 400.244px;" id="eled6x5z0j09m" class="animable"></path><path d="M108.39,363.86s0,.06-.06.18l-.23.51-.91,1.94c-.19.42-.44.88-.65,1.4l-.68,1.71c-.25.61-.51,1.27-.79,2l-.76,2.25a101,101,0,0,0-3,11.26c-.93,4.29-1.68,9.07-2.36,14.09-1.31,10.07-2,19.24-2.78,25.86-.36,3.31-.66,6-.92,7.83-.12.89-.22,1.6-.3,2.12l-.08.55c0,.13,0,.19,0,.19v-.19c0-.15,0-.34,0-.56,0-.52.13-1.23.22-2.13.21-1.85.47-4.53.79-7.84.66-6.62,1.35-15.8,2.66-25.88.68-5,1.45-9.82,2.4-14.12A98,98,0,0,1,104,373.71l.79-2.24c.29-.69.57-1.35.82-2s.5-1.17.72-1.7.48-1,.69-1.39l1-1.91.26-.49A1.21,1.21,0,0,1,108.39,363.86Z" style="fill: rgb(38, 50, 56); transform-origin: 101.63px 399.805px;" id="el9qreowjxq5c" class="animable"></path><path d="M109.46,363.94a8.21,8.21,0,0,1,1.24,2.49,17.78,17.78,0,0,1,.53,7.54c-.76,6.35-2,15.1-3.4,24.74s-2.92,18.36-4,24.65c-.57,3.15-1,5.69-1.39,7.44l-.4,2-.12.52c0,.12,0,.18-.05.18a.69.69,0,0,1,0-.19c0-.14,0-.31.08-.53l.33-2c.3-1.8.73-4.34,1.25-7.46,1.06-6.3,2.48-15,3.93-24.66s2.68-18.38,3.51-24.71a18.16,18.16,0,0,0-.38-7.46A15.67,15.67,0,0,0,109.46,363.94Z" style="fill: rgb(38, 50, 56); transform-origin: 106.639px 398.72px;" id="el6i7krg09ra7" class="animable"></path><path d="M115.34,394.37a6.27,6.27,0,0,1-2.14-.72,6.08,6.08,0,0,1-2-1.1,6.55,6.55,0,0,1,2.14.72A6.3,6.3,0,0,1,115.34,394.37Z" style="fill: rgb(38, 50, 56); transform-origin: 113.27px 393.46px;" id="elm8xgxlll2hn" class="animable"></path><path d="M117.57,382.71a13.65,13.65,0,0,1-4.47,1.63,13.65,13.65,0,0,1,4.47-1.63Z" style="fill: rgb(38, 50, 56); transform-origin: 115.335px 383.525px;" id="elqzsobbvbpns" class="animable"></path><path d="M117.53,373.06a3.64,3.64,0,0,1-1.73,0,3.8,3.8,0,0,1-1.67-.44,3.64,3.64,0,0,1,1.73,0A3.8,3.8,0,0,1,117.53,373.06Z" style="fill: rgb(38, 50, 56); transform-origin: 115.83px 372.84px;" id="ellrtu39ui3r" class="animable"></path><path d="M106.06,366.07c-.1.05-.56-.61-1-1.49a4.05,4.05,0,0,1-.67-1.68c.1,0,.57.61,1,1.49A4.1,4.1,0,0,1,106.06,366.07Z" style="fill: rgb(38, 50, 56); transform-origin: 105.225px 364.486px;" id="elrby6g45wj1" class="animable"></path><path d="M101.71,371.59c0,.12-.75.14-1.65.06s-1.62-.24-1.61-.36a3.42,3.42,0,0,1,1.65-.05A3.47,3.47,0,0,1,101.71,371.59Z" style="fill: rgb(38, 50, 56); transform-origin: 100.08px 371.43px;" id="eljmzil56145b" class="animable"></path><path d="M98.06,383c0,.11-.8-.16-1.69-.59s-1.56-.87-1.51-1a4.11,4.11,0,0,1,1.69.6C97.44,382.47,98.11,382.9,98.06,383Z" style="fill: rgb(38, 50, 56); transform-origin: 96.46px 382.217px;" id="elgs0rypxcp1" class="animable"></path><path d="M97.07,392.75c0,.11-.66.3-1.51.41a3.1,3.1,0,0,1-1.56,0c0-.12.66-.3,1.51-.42S97.05,392.63,97.07,392.75Z" style="fill: rgb(38, 50, 56); transform-origin: 95.535px 392.957px;" id="elw83z6pw6v2e" class="animable"></path><path d="M94.61,408.63A3.49,3.49,0,0,1,93,409c-.89.09-1.62.08-1.63,0s.7-.28,1.59-.38S94.6,408.51,94.61,408.63Z" style="fill: rgb(38, 50, 56); transform-origin: 92.9899px 408.803px;" id="el9c99a1ubg4b" class="animable"></path><path d="M93.1,417.38c.05.11-.57.48-1.37.83s-1.48.55-1.53.45.57-.48,1.37-.83S93.05,417.28,93.1,417.38Z" style="fill: rgb(38, 50, 56); transform-origin: 91.65px 418.02px;" id="el9hmky06edou" class="animable"></path><path d="M99.59,427.9a9,9,0,0,1-1.67-3.47,9.21,9.21,0,0,1,1.67,3.47Z" style="fill: rgb(38, 50, 56); transform-origin: 98.755px 426.165px;" id="el40u2qe6hgbk" class="animable"></path><path d="M102.85,411.42c.07.08-.54.73-1.37,1.43s-1.57,1.21-1.64,1.12.54-.73,1.37-1.43S102.77,411.33,102.85,411.42Z" style="fill: rgb(38, 50, 56); transform-origin: 101.345px 412.695px;" id="elbgt07ykrqft" class="animable"></path><path d="M103,402.66c-.09.07-.59-.4-1.11-1.05s-.87-1.23-.78-1.3.59.4,1.11,1.05S103.09,402.59,103,402.66Z" style="fill: rgb(38, 50, 56); transform-origin: 102.055px 401.485px;" id="elw96a1wtdhm" class="animable"></path><path d="M105.22,391.61c.08.08-.43.71-1.15,1.41s-1.37,1.19-1.45,1.11.44-.71,1.16-1.41S105.14,391.53,105.22,391.61Z" style="fill: rgb(38, 50, 56); transform-origin: 103.92px 392.87px;" id="elceluei5m7vk" class="animable"></path><path d="M106.6,383.57c-.08.08-.7-.48-1.38-1.25s-1.16-1.46-1.08-1.53.71.48,1.39,1.25S106.69,383.5,106.6,383.57Z" style="fill: rgb(38, 50, 56); transform-origin: 105.371px 382.181px;" id="el70musk7qjfm" class="animable"></path><path d="M109,372.75a4.13,4.13,0,0,1-.86,1.58c-.56.81-1.09,1.42-1.19,1.35a4.13,4.13,0,0,1,.86-1.58C108.33,373.29,108.86,372.68,109,372.75Z" style="fill: rgb(38, 50, 56); transform-origin: 107.975px 374.215px;" id="elf2hszcqxj1p" class="animable"></path><path d="M112.65,362.82a4,4,0,0,1-.77,1.59c-.52.82-1,1.44-1.12,1.38a4,4,0,0,1,.77-1.6C112.05,363.37,112.55,362.76,112.65,362.82Z" style="fill: rgb(38, 50, 56); transform-origin: 111.705px 364.305px;" id="elux5p8hzreu" class="animable"></path><path d="M115.69,367.66c0,.11-.44.4-1.08.65s-1.19.37-1.23.27.44-.4,1.08-.65S115.65,367.56,115.69,367.66Z" style="fill: rgb(38, 50, 56); transform-origin: 114.534px 368.12px;" id="elemjqn1ggqno" class="animable"></path><path d="M113.19,404.07a4.65,4.65,0,0,1-2.22-.7,4.71,4.71,0,0,1-1.86-1.39,10.76,10.76,0,0,1,2,1A11.74,11.74,0,0,1,113.19,404.07Z" style="fill: rgb(38, 50, 56); transform-origin: 111.15px 403.025px;" id="elznpypo4krhr" class="animable"></path><path d="M111.27,411.69a3.49,3.49,0,0,1-1.59.4,3.56,3.56,0,0,1-1.64,0c0-.12.7-.3,1.59-.4S111.25,411.57,111.27,411.69Z" style="fill: rgb(38, 50, 56); transform-origin: 109.655px 411.897px;" id="eltixqdmr0kf8" class="animable"></path><path d="M108.64,424.79c-.08.08-.91-.59-1.65-1.67a4.55,4.55,0,0,1-1-2.14,12.75,12.75,0,0,1,1.3,1.91A13.45,13.45,0,0,1,108.64,424.79Z" style="fill: rgb(38, 50, 56); transform-origin: 107.315px 422.888px;" id="eluuu7jdesym" class="animable"></path><path d="M89.66,429.52c-.07-.09.44-.58,1.13-1.09s1.31-.86,1.38-.76-.44.58-1.13,1.09S89.73,429.61,89.66,429.52Z" style="fill: rgb(38, 50, 56); transform-origin: 90.915px 428.594px;" id="el5ded4qq5jgp" class="animable"></path><path d="M66.23,387a10.06,10.06,0,0,0-9.4-8c-4,.7-5.54,4.63-6,8.66s.78,8,2,11.89q6,18.6,11.89,37.18L76,435.49C72.39,418.88,70.35,403.49,66.23,387Z" style="fill: rgb(69, 90, 100); transform-origin: 63.3659px 407.865px;" id="el0ajheojsd4g" class="animable"></path><path d="M57,378.66a15.62,15.62,0,0,0-1.36,1.83,12.93,12.93,0,0,0-1.71,5.88,27.16,27.16,0,0,0,1.39,9c1,3.35,2.07,7,3.21,10.87L64.27,426c.71,2.51,1.28,4.55,1.7,6l.44,1.64a3.2,3.2,0,0,1,.13.58,2.54,2.54,0,0,1-.21-.56c-.13-.41-.3-.95-.52-1.62l-1.82-6c-1.51-5.09-3.58-12.05-5.87-19.74-1.12-3.85-2.2-7.52-3.17-10.87a26.82,26.82,0,0,1-1.32-9.17,12.69,12.69,0,0,1,1.87-6A7.09,7.09,0,0,1,57,378.66Z" style="fill: rgb(38, 50, 56); transform-origin: 60.0787px 406.44px;" id="elkfy43i35qu" class="animable"></path><path d="M73.5,434.29a3.07,3.07,0,0,1-.26-.54c-.14-.36-.38-.89-.64-1.58-.53-1.38-1.22-3.42-1.93-6s-1.41-5.63-2.09-9.06-1.37-7.21-2.12-11.18-1.65-7.69-2.66-11a63.06,63.06,0,0,0-3.27-8.66,47.34,47.34,0,0,0-3-5.46c-.39-.63-.74-1.08-1-1.41a2.06,2.06,0,0,1-.31-.51,3.39,3.39,0,0,1,.38.46c.23.31.6.75,1,1.37a40.08,40.08,0,0,1,3.16,5.42,59.6,59.6,0,0,1,3.38,8.67c1,3.36,1.91,7.11,2.7,11.07s1.44,7.74,2.08,11.19,1.33,6.5,2,9.05,1.32,4.6,1.81,6c.22.7.44,1.24.56,1.61A3.3,3.3,0,0,1,73.5,434.29Z" style="fill: rgb(38, 50, 56); transform-origin: 64.86px 406.59px;" id="elkdr2jri0og" class="animable"></path><path d="M53,397.68c0,.11-.59.35-1.37.54s-1.44.25-1.46.14.58-.35,1.36-.54S53,397.56,53,397.68Z" style="fill: rgb(38, 50, 56); transform-origin: 51.5848px 398.018px;" id="el6gynkco0qvp" class="animable"></path><path d="M51.83,390a5.67,5.67,0,0,1-1.89.2,5.84,5.84,0,0,1-1.91,0,3.91,3.91,0,0,1,1.89-.36A3.89,3.89,0,0,1,51.83,390Z" style="fill: rgb(38, 50, 56); transform-origin: 49.93px 390.033px;" id="ell2sdrxzfww" class="animable"></path><path d="M53.1,383c-.07.09-.68-.31-1.36-.88s-1.17-1.11-1.1-1.2.69.31,1.37.88S53.17,382.92,53.1,383Z" style="fill: rgb(38, 50, 56); transform-origin: 51.8701px 381.96px;" id="elj6n8z60pkoj" class="animable"></path><path d="M56.53,376.52c.11,0,.08.57.06,1.23s0,1.21-.13,1.23-.3-.53-.28-1.24S56.42,376.49,56.53,376.52Z" style="fill: rgb(38, 50, 56); transform-origin: 56.3939px 377.75px;" id="elqfa8g694x7e" class="animable"></path><path d="M63.53,379.58c.1.06-.18.61-.61,1.23s-.86,1.07-1,1,.18-.62.61-1.24S63.44,379.51,63.53,379.58Z" style="fill: rgb(38, 50, 56); transform-origin: 62.7185px 380.695px;" id="elma0zok8lah8" class="animable"></path><path d="M68.08,387.47c0,.11-.54.44-1.3.75s-1.41.48-1.46.37.54-.44,1.3-.75S68,387.37,68.08,387.47Z" style="fill: rgb(38, 50, 56); transform-origin: 66.6985px 388.032px;" id="elk9hzvewfxoq" class="animable"></path><path d="M70.83,395.6a3.32,3.32,0,0,1-1.78.77,3.43,3.43,0,0,1-1.94.07A7.25,7.25,0,0,1,69,396,7.11,7.11,0,0,1,70.83,395.6Z" style="fill: rgb(38, 50, 56); transform-origin: 68.97px 396.074px;" id="el5t43p57wk4l" class="animable"></path><path d="M58.17,393.29c-.1,0,0-.6.18-1.26s.46-1.16.57-1.13,0,.6-.17,1.26S58.28,393.32,58.17,393.29Z" style="fill: rgb(38, 50, 56); transform-origin: 58.5473px 392.095px;" id="elu4c9aqnmbzh" class="animable"></path><path d="M59.94,403.49a3.91,3.91,0,0,1,.51-1.69c.38-.89.78-1.57.89-1.53a4,4,0,0,1-.51,1.69C60.44,402.85,60.05,403.53,59.94,403.49Z" style="fill: rgb(38, 50, 56); transform-origin: 60.64px 401.88px;" id="el1cub6prclbh" class="animable"></path><path d="M55.58,406.28c0,.11-.76-.09-1.62-.36s-1.56-.51-1.53-.63a3,3,0,0,1,1.65.24C55,405.8,55.62,406.18,55.58,406.28Z" style="fill: rgb(38, 50, 56); transform-origin: 54.0055px 405.786px;" id="eldc3r2zitv2i" class="animable"></path><path d="M58.09,414.6c.07.09-.41.55-1.07,1s-1.25.77-1.32.68.42-.55,1.08-1S58,414.5,58.09,414.6Z" style="fill: rgb(38, 50, 56); transform-origin: 56.8951px 415.439px;" id="elp1567fowzv" class="animable"></path><path d="M60.11,422.89c0,.11-.57.35-1.33.53s-1.4.25-1.43.14.57-.35,1.33-.54S60.08,422.78,60.11,422.89Z" style="fill: rgb(38, 50, 56); transform-origin: 58.7295px 423.223px;" id="els0po3jplsw" class="animable"></path><path d="M71.06,402.52c0,.1-.45.5-1.2.78s-1.39.31-1.41.2.56-.32,1.27-.59S71,402.42,71.06,402.52Z" style="fill: rgb(38, 50, 56); transform-origin: 69.7547px 403.027px;" id="elcf48sszfu5l" class="animable"></path><path d="M72.62,415.42c-.05.1-.65-.08-1.35-.41s-1.23-.68-1.18-.78.65.08,1.35.41S72.67,415.32,72.62,415.42Z" style="fill: rgb(38, 50, 56); transform-origin: 71.355px 414.825px;" id="elwfjepxcoed9" class="animable"></path><path d="M75.38,424.65a4.25,4.25,0,0,1-1.79-.48,4.49,4.49,0,0,1-1.64-.86,4.19,4.19,0,0,1,1.79.48C74.69,424.16,75.42,424.54,75.38,424.65Z" style="fill: rgb(38, 50, 56); transform-origin: 73.6658px 423.98px;" id="elcv3dwakxxfu" class="animable"></path><path d="M60.55,431.88c0-.1.68-.6,1.53-1.27s1.51-1.27,1.6-1.19-.45.82-1.34,1.52A3.7,3.7,0,0,1,60.55,431.88Z" style="fill: rgb(38, 50, 56); transform-origin: 62.1199px 430.646px;" id="elo0yfjrzemda" class="animable"></path><path d="M67.85,427.19c-.12,0-.27-.61-.56-1.33s-.57-1.29-.48-1.36.57.43.87,1.21S68,427.18,67.85,427.19Z" style="fill: rgb(38, 50, 56); transform-origin: 67.3671px 425.842px;" id="elrjvgw1b83z" class="animable"></path><path d="M65.92,416.09c-.07.09-.54-.13-1.06-.5s-.87-.75-.81-.84.54.13,1,.5S66,416,65.92,416.09Z" style="fill: rgb(38, 50, 56); transform-origin: 64.986px 415.42px;" id="elio2e5xafazn" class="animable"></path><rect x="55.16" y="431.66" width="58.8" height="10.42" style="fill: rgb(255, 114, 94); transform-origin: 84.56px 436.87px;" id="elpfsk14qjzod" class="animable"></rect><polygon points="59.55 440.02 66.7 471.16 101.75 471.16 109.57 440.02 59.55 440.02" style="fill: rgb(255, 114, 94); transform-origin: 84.56px 455.59px;" id="elyxxs4cidfi" class="animable"></polygon><path d="M113.93,442.1c0,.11-13.27.2-29.62.2s-29.63-.09-29.63-.2,13.26-.21,29.63-.21S113.93,442,113.93,442.1Z" style="fill: rgb(38, 50, 56); transform-origin: 84.305px 442.095px;" id="ele0kgku2kzmd" class="animable"></path></g><g id="freepik--Character--inject-135" class="animable" style="transform-origin: 367.99px 275.86px;"><path d="M353.09,386.48c0,2,31.17,85,31.17,85H396.8l-31.08-85Z" style="fill: rgb(69, 90, 100); transform-origin: 374.945px 428.98px;" id="eluzn7tq774y" class="animable"></path><rect x="308.47" y="382.48" width="12.5" height="88.99" style="fill: rgb(69, 90, 100); transform-origin: 314.72px 426.975px;" id="elymymz6wpdr" class="animable"></rect><rect x="350.27" y="413.32" width="39.79" height="8.86" style="fill: rgb(69, 90, 100); transform-origin: 370.165px 417.75px;" id="elt45aoo7nxm" class="animable"></rect><rect x="308.47" y="380.91" width="69.19" height="8.86" style="fill: rgb(69, 90, 100); transform-origin: 343.065px 385.34px;" id="el1o78u5ga1t7" class="animable"></rect><rect x="361.3" y="445.73" width="41.18" height="8.86" style="fill: rgb(69, 90, 100); transform-origin: 381.89px 450.16px;" id="eltnltyue7gbl" class="animable"></rect><path d="M378.06,390.05c0,.14-15.61.26-34.86.26s-34.86-.12-34.86-.26,15.6-.26,34.86-.26S378.06,389.9,378.06,390.05Z" style="fill: rgb(38, 50, 56); transform-origin: 343.2px 390.05px;" id="elqr33g88f25" class="animable"></path><path d="M321.21,471.47c-.14,0-.26-18.23-.26-40.71s.12-40.71.26-40.71.26,18.22.26,40.71S321.36,471.47,321.21,471.47Z" style="fill: rgb(38, 50, 56); transform-origin: 321.21px 430.76px;" id="elcatujj375d" class="animable"></path><path d="M384.26,471.47c-.14,0-7-18.23-15.34-40.83s-15-40.95-14.86-41,7,18.22,15.35,40.82S384.39,471.42,384.26,471.47Z" style="fill: rgb(38, 50, 56); transform-origin: 369.16px 430.555px;" id="eld0t7m7q3f49" class="animable"></path><path d="M397,471.47c-.13,0-7-18.23-15.34-40.83s-15-40.95-14.86-41,7,18.22,15.35,40.82S397.13,471.42,397,471.47Z" style="fill: rgb(38, 50, 56); transform-origin: 381.9px 430.555px;" id="el061pg4s7shzj" class="animable"></path><path d="M436.18,198c-.93-4-3.19-7.59-5.42-11.06a47.83,47.83,0,0,1-11.49,5.15l1.18,20.82c4.64.14,9.78-.11,13.09-3.36C436.48,206.68,437.12,202.05,436.18,198Z" style="fill: rgb(255, 190, 157); transform-origin: 427.926px 199.94px;" id="eltu7pbeaexb8" class="animable"></path><path d="M421.44,161.36l-10.13,23a37.58,37.58,0,0,1,8.59,12.94,60.1,60.1,0,0,0,16.33-11.78C431.26,178.59,425.51,164.59,421.44,161.36Z" style="fill: rgb(255, 114, 94); transform-origin: 423.77px 179.33px;" id="elpcv7n0zkw4c" class="animable"></path><path d="M407.4,110.51l-4.08,39.71c-.7,6.75-3.1,16.53-13.72,14.94h0c-9.12-2.07-10.56-11.09-9.9-17.39.31-3,.56-5.48.57-5.79,0,0-10-2-9.71-12.07.14-4.87,1.26-14.88,2.37-23.92a18.78,18.78,0,0,1,19.44-16.47l1,0C403.79,90.62,408.74,100.09,407.4,110.51Z" style="fill: rgb(255, 190, 157); transform-origin: 389.084px 127.417px;" id="elnx5xy452n2i" class="animable"></path><path d="M380.26,141.83a23.41,23.41,0,0,0,13.29-3.18s-3.41,7.12-13.42,5.79Z" style="fill: rgb(235, 153, 110); transform-origin: 386.84px 141.628px;" id="elknib6g5gj5g" class="animable"></path><path d="M374.22,111.07c.17.21,1.6,0,3.38.51s2.92,1.59,3.15,1.5,0-.38-.5-.85a6.5,6.5,0,0,0-2.48-1.38,5.7,5.7,0,0,0-2.74-.22C374.4,110.75,374.14,111,374.22,111.07Z" style="fill: rgb(38, 50, 56); transform-origin: 377.523px 111.82px;" id="elkj6iiksnxbg" class="animable"></path><path d="M389.68,113.39c.24.12,1.41-.74,3.24-1s3.31.12,3.48-.07-.19-.32-.83-.52a6.54,6.54,0,0,0-2.82-.13,5.81,5.81,0,0,0-2.54,1C389.7,113,389.56,113.34,389.68,113.39Z" style="fill: rgb(38, 50, 56); transform-origin: 393.041px 112.488px;" id="elf7u09oj879w" class="animable"></path><path d="M389.74,116.69a1.12,1.12,0,0,0,1,1.16,1.05,1.05,0,0,0,1.18-.95,1.11,1.11,0,0,0-1-1.17A1.07,1.07,0,0,0,389.74,116.69Z" style="fill: rgb(38, 50, 56); transform-origin: 390.83px 116.791px;" id="el0vepayedye2" class="animable"></path><path d="M375,115.51a1.1,1.1,0,0,0,1,1.16,1.06,1.06,0,0,0,1.19-1,1.11,1.11,0,0,0-1-1.17A1.06,1.06,0,0,0,375,115.51Z" style="fill: rgb(38, 50, 56); transform-origin: 376.095px 115.585px;" id="els3ktzlvpey" class="animable"></path><path d="M384,123.19a10.69,10.69,0,0,0-2.49-.55c-.4-.06-.77-.16-.82-.43a1.94,1.94,0,0,1,.31-1.16l1.29-3c1.81-4.22,3.13-7.69,3-7.76s-1.77,3.29-3.57,7.5c-.44,1-.85,2-1.25,3a2.29,2.29,0,0,0-.27,1.55,1,1,0,0,0,.62.6,2.72,2.72,0,0,0,.67.12A10,10,0,0,0,384,123.19Z" style="fill: rgb(38, 50, 56); transform-origin: 382.731px 116.753px;" id="elywbqupf11l" class="animable"></path><path d="M391,105.84c.12.39,1.49.26,3.08.53s2.87.77,3.1.44c.1-.16-.11-.53-.61-.93a5.18,5.18,0,0,0-2.28-.93,4.88,4.88,0,0,0-2.43.2C391.22,105.37,390.91,105.65,391,105.84Z" style="fill: rgb(38, 50, 56); transform-origin: 394.094px 105.899px;" id="el7d9jydq89si" class="animable"></path><path d="M374.72,107.11c.14.32,1.48.13,3.07.27s2.88.48,3.08.19c.09-.14-.14-.45-.66-.75a5.92,5.92,0,0,0-4.69-.35C374.94,106.69,374.66,107,374.72,107.11Z" style="fill: rgb(38, 50, 56); transform-origin: 377.801px 106.913px;" id="elsjfhmnj5bam" class="animable"></path><path d="M406.26,117.93c.18-.06,7-1.75,6.5,5.13s-7.31,4.94-7.3,4.75S406.26,117.93,406.26,117.93Z" style="fill: rgb(255, 190, 157); transform-origin: 409.123px 122.955px;" id="elln58s32tlu" class="animable"></path><path d="M407.75,125.36s.11.09.31.2a1.2,1.2,0,0,0,.89.08,3,3,0,0,0,1.57-2.56,3.82,3.82,0,0,0-.21-1.74,1.36,1.36,0,0,0-.83-1,.59.59,0,0,0-.73.27c-.11.19-.07.33-.11.34s-.14-.13-.06-.41a.74.74,0,0,1,.3-.41.93.93,0,0,1,.67-.13,1.71,1.71,0,0,1,1.18,1.16,4.16,4.16,0,0,1,.27,1.95c-.15,1.38-.95,2.63-2,2.84a1.28,1.28,0,0,1-1.08-.26C407.75,125.52,407.72,125.37,407.75,125.36Z" style="fill: rgb(235, 153, 110); transform-origin: 409.381px 122.982px;" id="eltj8inwjd7to" class="animable"></path><path d="M385.06,128.12c-.06-.18,1.33-.43,2.42-1.58a7.64,7.64,0,0,0,1.15-1.68c.26-.47.45-.76.52-.73s0,.36-.16.89a5.19,5.19,0,0,1-1.11,1.9,4.22,4.22,0,0,1-1.91,1.14C385.43,128.21,385.07,128.18,385.06,128.12Z" style="fill: rgb(38, 50, 56); transform-origin: 387.118px 126.149px;" id="eltoevulaemz" class="animable"></path><path d="M365.11,98.77a1.87,1.87,0,0,0-1.28,1.36,2.18,2.18,0,0,0,1.29,2.33,2.78,2.78,0,0,0,2.73-.38,4.07,4.07,0,0,0-1,.76,1.77,1.77,0,0,0,2.3,2.64l0,0a17.13,17.13,0,0,1,.6,1.69h0l0,.11c.12.35.24.7.4,1v0l1.85,4.78c.47-2.8.69-6.8,1.16-9.59a15.78,15.78,0,0,0,11.77-3.87c1.73-1.52,3.18-3.51,5.35-4.29,2.8-1,5.84.31,8.52,1.6l-.1-.12a12.57,12.57,0,0,1,3.54,3.24,39.26,39.26,0,0,0-.22,16.68c.17.83.7,2.55,1.45,3,1.47.77,2.06-.75,3.08-1.48a4.13,4.13,0,0,1,2.88-.36,63.88,63.88,0,0,0,2.7-6.89l1.23-2.31v-2.76c-1.15-2.58,2-3.48,1.55-6.26s-1.65-5.75-4.18-7l-.07,0c-2.26-1.23-5.18-1.58-7.32-.15-.07-3.62-2.86-6.8-6.23-8.11a23.33,23.33,0,0,0-12.49-.45c-2.69.74-5.43,2.57-8.81,5.34-1.43,1.17-3.26,5.46-4.47,6.84Z" style="fill: rgb(38, 50, 56); transform-origin: 389.38px 101.61px;" id="el73ess5bcz2j" class="animable"></path><path d="M401.74,81c.48.14,12,4.6,13.66,13.91s.39,11.91.39,11.91a5.7,5.7,0,0,1,1.08,1.25c.41.66-.72,3.35-2.23,2.8-10.87-6.87-24.57-9.43-40-11.22l-11.72-1.89c-3.35-.1-4.37-1.15-2.86-1.77,1.15-.47,11-2.84,11-2.84l2-1.06,5.85-6s-.46-1,.84-1.63S392.22,78.24,401.74,81Z" style="fill: rgb(255, 114, 94); transform-origin: 388.167px 95.5914px;" id="eln7xt63mnpbh" class="animable"></path><path d="M373.15,92.12l.46.07,1.32.16c1.14.12,2.79.38,4.82.73a92,92,0,0,1,15.47,4.28,140.69,140.69,0,0,1,14.69,6.5c1.84.92,3.32,1.7,4.34,2.22.47.25.85.45,1.18.61l.41.2-.4-.23-1.16-.64c-1-.55-2.47-1.35-4.3-2.29a131.22,131.22,0,0,0-14.7-6.56,86.76,86.76,0,0,0-15.51-4.23C375.7,92.26,373.15,92.12,373.15,92.12Z" style="fill: rgb(38, 50, 56); transform-origin: 394.495px 99.505px;" id="elsomohw1dmnj" class="animable"></path><g id="elf2wue7vd8ho"><g style="opacity: 0.3; transform-origin: 398.5px 85.646px;" class="animable"><path d="M411.84,87.87s-12.53-4-18.68-2.06l.72-.24-5.79,1.59a3.44,3.44,0,0,1-2.93-.09,26,26,0,0,1,8.93-3.2C399.72,82.85,408.37,83.33,411.84,87.87Z" id="eltkax0fpp7mb" class="animable" style="transform-origin: 398.5px 85.646px;"></path></g></g><path d="M412,88a8.9,8.9,0,0,0-1-.93,16.43,16.43,0,0,0-3.23-2,19.46,19.46,0,0,0-5.38-1.6,16.07,16.07,0,0,0-6.85.32A28.84,28.84,0,0,0,392.16,85c-1.06.45-2.09.84-3.05,1.31a18.29,18.29,0,0,1-2.73,1.21,5.58,5.58,0,0,1-2.55.13c-3.16-.42-5-1.36-4.83-1.54a.54.54,0,0,0,.22.29,4.47,4.47,0,0,0,.92.47,17.24,17.24,0,0,0,3.67.92,5.73,5.73,0,0,0,2.62-.11,17.71,17.71,0,0,0,2.76-1.21c.94-.45,2-.84,3-1.29A28.66,28.66,0,0,1,395.57,84a16.18,16.18,0,0,1,6.77-.33,19.64,19.64,0,0,1,5.35,1.55,16.17,16.17,0,0,1,3.24,1.92c.36.26.63.48.81.64Z" style="fill: rgb(38, 50, 56); transform-origin: 395.495px 85.6214px;" id="elajgngmg3yqn" class="animable"></path><g id="elyibnmitf989"><g style="opacity: 0.3; transform-origin: 406.982px 96.07px;" class="animable"><path d="M416,98.81a29.21,29.21,0,0,1-6.17-2c-2.35-.89-4.7-1.67-7-2.67-1.76-.76-3.85-1.52-4.85-3a2.7,2.7,0,0,0,.45,2.61A12.76,12.76,0,0,0,402,96a68,68,0,0,0,14.14,5,15.36,15.36,0,0,0-.21-2.14" id="elpkeczbsg55" class="animable" style="transform-origin: 406.982px 96.07px;"></path></g></g><path d="M415.17,93.92c1.37.84,2.2,1.4,2.06,2.65-.12,1-.52,2.27-1.56,2.3a2.52,2.52,0,0,1-.93-.21l-15.41-5.54a2.39,2.39,0,0,1-1.36-.89,1.64,1.64,0,0,1,.87-2.11,4.45,4.45,0,0,1,2.51-.18,53,53,0,0,1,13.82,4" style="fill: rgb(255, 114, 94); transform-origin: 407.55px 94.3537px;" id="el0ctm70nhbeym" class="animable"></path><path d="M398.18,92.5a1.71,1.71,0,0,1-.33-.76,2,2,0,0,1,.95-1.91,5,5,0,0,1,3.3-.23c1.27.25,2.66.54,4.1.9a42.83,42.83,0,0,1,7.22,2.42c.89.39,1.59.75,2.07,1l.56.3c.13.06.19.1.2.09l-.18-.13-.54-.33c-.47-.27-1.16-.66-2-1.07a38.72,38.72,0,0,0-7.23-2.48c-1.45-.36-2.84-.65-4.11-.89a5.06,5.06,0,0,0-3.41.29,2.08,2.08,0,0,0-1,2,1.37,1.37,0,0,0,.24.59Z" style="fill: rgb(38, 50, 56); transform-origin: 407.009px 91.7756px;" id="elksvqhn50zfn" class="animable"></path><polygon points="377.17 88 387.19 89.26 385.93 91.95 375.1 90.12 377.17 88" style="fill: rgb(255, 255, 255); transform-origin: 381.145px 89.975px;" id="ell4zkd2u8wup" class="animable"></polygon><path d="M391,99.09s-4.34-1.34-9.74-2.88-9.78-2.76-9.79-2.7,4.34,1.34,9.74,2.89S391,99.15,391,99.09Z" style="fill: rgb(38, 50, 56); transform-origin: 381.235px 96.3px;" id="elbym2wi1kt44" class="animable"></path><path d="M461.76,235.61l5.11-13.28,13-5.77,10.05,7.82,2.85-2.86a30.59,30.59,0,0,0-51.26-14.88l-134.7-51.5a30.6,30.6,0,0,0-48-23.33l-2.85,2.85,15.76,2.12,5.77,13-5.11,13.27-13,5.78-13.71-4.17-2.05,2.06c2.88,8.15,13,15.42,21.67,18.77a30.58,30.58,0,0,0,32.41-6.71L432.42,230.3A30.61,30.61,0,0,0,452,257c9.84,3.78,21.65,2.7,29.7-2.88l-14.14-5.52Z" style="fill: rgb(224, 224, 224); transform-origin: 368.195px 192.786px;" id="elmtwj9xj0ker" class="animable"></path><g id="elupk8o0hsum"><g style="opacity: 0.3; transform-origin: 368.195px 192.786px;" class="animable"><path d="M461.76,235.61l5.11-13.28,13-5.77,10.05,7.82,2.85-2.86a30.59,30.59,0,0,0-51.26-14.88l-134.7-51.5a30.6,30.6,0,0,0-48-23.33l-2.85,2.85,15.76,2.12,5.77,13-5.11,13.27-13,5.78-13.71-4.17-2.05,2.06c2.82,8.3,12.85,15.38,21.67,18.77a30.58,30.58,0,0,0,32.41-6.71L432.42,230.3A30.61,30.61,0,0,0,452,257c9.84,3.78,21.65,2.7,29.7-2.88l-14.14-5.52Z" id="el6jev6e36via" class="animable" style="transform-origin: 368.195px 192.786px;"></path></g></g><path d="M458.91,238.46,464,225.18l13-5.77,12.9,5a30.6,30.6,0,0,0-51.26-14.89L304,158a30.61,30.61,0,0,0-48-23.33l12.9,5,5.78,13-5.11,13.28-13,5.77-12.91-5a30.6,30.6,0,0,0,51.23,14.92l134.74,51.51a30.6,30.6,0,0,0,48,23.28l-12.9-5Z" style="fill: rgb(224, 224, 224); transform-origin: 366.78px 195.555px;" id="eli457ckaljdo" class="animable"></path><path d="M303,163.94a2.69,2.69,0,0,1,0,.82,17.42,17.42,0,0,1-.19,2.24,24.62,24.62,0,0,1-2.18,7.07,24.26,24.26,0,0,1-4.17,6.1,16.18,16.18,0,0,1-1.63,1.55c-.41.33-.64.51-.67.48s.81-.85,2-2.27a28.08,28.08,0,0,0,6.26-13C302.87,165.1,303,163.94,303,163.94Z" style="fill: rgb(38, 50, 56); transform-origin: 298.595px 173.072px;" id="elrv2ni3r43nj" class="animable"></path><path d="M458.91,238.46l.38.83c.26.56.63,1.38,1.12,2.47l4.34,9.67,0,0,12.91,4.94.18.07-.16.11a31.33,31.33,0,0,1-11.83,5A30.74,30.74,0,0,1,436.47,251a31.23,31.23,0,0,1-7.08-17.82l.12.16L294.74,181.87l.26-.05a31.26,31.26,0,0,1-13.61,7.75,30.27,30.27,0,0,1-16,0,30.84,30.84,0,0,1-14.07-8.23,31.25,31.25,0,0,1-8-14.56l-.11-.47.46.17,12.9,5h-.2l13-5.77-.14.14,5.11-13.27v.18l-5.76-13,.14.13-12.9-5-.46-.18.4-.28a30.8,30.8,0,0,1,31.61-2.15A30.31,30.31,0,0,1,299.3,143,31.38,31.38,0,0,1,304.21,158l-.17-.21,134.68,51.55-.19,0a31.14,31.14,0,0,1,16.77-8.43,30.77,30.77,0,0,1,29,11.38,31.3,31.3,0,0,1,5.77,12l0,.22-.21-.08-12.9-5h.08l-13,5.75,0,0c-1.76,4.54-3.05,7.85-3.9,10-.42,1.09-.74,1.89-.95,2.43s-.32.79-.32.79.08-.26.28-.79.51-1.35.92-2.43c.83-2.19,2.1-5.52,3.84-10.08v0h0l13-5.8,0,0,0,0L490,224.26l-.16.14a31.07,31.07,0,0,0-5.75-11.93,30.49,30.49,0,0,0-28.7-11.21,30.89,30.89,0,0,0-16.56,8.36l-.09.09-.11-.05L303.87,158.22l-.16-.05V158a30.33,30.33,0,0,0-47.61-23.12l-.06-.46,12.91,5,.1,0,0,.09q2.87,6.47,5.77,13v0l0,.09,0,.1c-1.75,4.55-3.49,9.08-5.11,13.28l0,.1-.1.05-13,5.77-.1,0-.1,0-12.9-5,.35-.3a30.24,30.24,0,0,0,21.67,22.41,29.67,29.67,0,0,0,15.73,0,30.76,30.76,0,0,0,13.4-7.62l.11-.11.15.06L429.63,233l.11,0v.11a31,31,0,0,0,7,17.64,30.52,30.52,0,0,0,29.06,10.47,31.25,31.25,0,0,0,11.75-4.91l0,.18-12.9-5h0l0,0c-1.88-4.27-3.31-7.53-4.28-9.72l-1.07-2.48C459,238.74,458.91,238.46,458.91,238.46Z" style="fill: rgb(38, 50, 56); transform-origin: 366.64px 195.499px;" id="el944i8g5k3lg" class="animable"></path><path d="M368.36,156.33l-9.58,76.5a7.43,7.43,0,0,0,5.55,8.12l49.39,8.55a4.84,4.84,0,0,0,5.67-4.71c.12-10.53.55-33.32,2.05-47.52,1.65-15.66,5.84-28.44,0-35.91s-16-12.67-16-12.67L404.33,144s-21.32,0-25,3.22l-2.26,3.91Z" style="fill: rgb(255, 114, 94); transform-origin: 391.583px 196.786px;" id="el5eppqtbeccd" class="animable"></path><path d="M423.53,173.94a1.32,1.32,0,0,1,0,.49c0,.38,0,.85-.07,1.41-.09,1.3-.22,3-.37,5.17-.33,4.36-.82,10.38-1.4,17s-1.14,12.67-1.56,17c-.22,2.11-.4,3.85-.54,5.15l-.17,1.4a1.55,1.55,0,0,1-.09.48,1.68,1.68,0,0,1,0-.49c0-.39,0-.85.07-1.41.09-1.3.22-3,.37-5.17.33-4.36.83-10.39,1.41-17s1.13-12.66,1.56-17c.22-2.12.39-3.86.53-5.16.07-.55.12-1,.17-1.4A2.05,2.05,0,0,1,423.53,173.94Z" style="fill: rgb(38, 50, 56); transform-origin: 421.432px 197.99px;" id="elwsewr953ypo" class="animable"></path><path d="M405.4,148.69a4.61,4.61,0,0,1-1.11.11l-3,.15c-2.57.13-6.11.35-10,.71s-7.42.77-10,1.06l-3,.34a4,4,0,0,1-1.12.06,5.34,5.34,0,0,1,1.09-.26c.71-.13,1.73-.3,3-.5,2.55-.39,6.07-.86,10-1.22s7.46-.53,10-.56c1.28,0,2.32,0,3,0A4.21,4.21,0,0,1,405.4,148.69Z" style="fill: rgb(38, 50, 56); transform-origin: 391.285px 149.856px;" id="elm3x0a16saa" class="animable"></path><path d="M327.13,350l8.4,18.72s-22.1,8.64-22.28,12.76l43-.78-.05-3.59-9.49-30.87Z" style="fill: rgb(255, 114, 94); transform-origin: 334.75px 363.86px;" id="elctu7bipgt5" class="animable"></path><path d="M348.12,365.31a1.76,1.76,0,0,1,1.25,2,1.68,1.68,0,0,1-1.95,1.25,1.84,1.84,0,0,1-1.31-2.1,1.74,1.74,0,0,1,2.17-1.08" style="fill: rgb(224, 224, 224); transform-origin: 347.739px 366.944px;" id="elkzd0zylyx6" class="animable"></path><path d="M356.25,380.66l-.05-3.59-41.29,2.15s-1.9.87-1.66,2.22Z" style="fill: rgb(38, 50, 56); transform-origin: 334.74px 379.255px;" id="el7a5hsl9v8iu" class="animable"></path><path d="M334.82,368.47c0,.21,1.07.28,2.11.94s1.61,1.53,1.8,1.44-.14-1.29-1.42-2.06S334.78,368.28,334.82,368.47Z" style="fill: rgb(38, 50, 56); transform-origin: 336.799px 369.563px;" id="elwboy97dctbd" class="animable"></path><path d="M330.35,370.42c-.05.2.87.54,1.6,1.42s.95,1.81,1.16,1.79.32-1.2-.61-2.27S330.35,370.22,330.35,370.42Z" style="fill: rgb(38, 50, 56); transform-origin: 331.801px 371.981px;" id="el8kaxu8rv384" class="animable"></path><path d="M327.88,375.86c.2,0,.47-1-.09-2.15s-1.55-1.58-1.64-1.41.54.78,1,1.73S327.68,375.84,327.88,375.86Z" style="fill: rgb(38, 50, 56); transform-origin: 327.133px 374.062px;" id="elyg4grdd4fqd" class="animable"></path><path d="M333.26,363.59c.09.19,1.05-.12,2.24-.06s2.12.42,2.22.24-.8-.92-2.2-1S333.15,363.43,333.26,363.59Z" style="fill: rgb(38, 50, 56); transform-origin: 335.49px 363.292px;" id="elzlvizugsyre" class="animable"></path><polygon points="401.34 410.47 402.3 446.16 383.53 446.11 382.53 411.29 401.34 410.47" style="fill: rgb(255, 114, 94); transform-origin: 392.415px 428.315px;" id="elygmluwsqkk" class="animable"></polygon><path d="M393,444.35c-.15,0-.39-7.61-.52-17s-.12-17,0-17,.39,7.6.52,17S393.14,444.35,393,444.35Z" style="fill: rgb(38, 50, 56); transform-origin: 392.744px 427.35px;" id="elzj3goka6zy" class="animable"></path><path d="M383.21,435a2.67,2.67,0,0,1,.46-.77,13,13,0,0,1,1.64-1.83,12.45,12.45,0,0,1,3-2.1,10,10,0,0,1,11.73,1.9,8.59,8.59,0,0,1,1.42,2,2.61,2.61,0,0,1,.32.84,19.5,19.5,0,0,0-2-2.57,10,10,0,0,0-7.1-2.72,11.5,11.5,0,0,0-7.07,2.94C384,434,383.29,435,383.21,435Z" style="fill: rgb(38, 50, 56); transform-origin: 392.495px 432.115px;" id="el2huzyz5jmq7" class="animable"></path><polygon points="402.23 446.19 383.55 446.11 383.41 441.89 402.25 441.98 402.23 446.19" style="fill: rgb(38, 50, 56); transform-origin: 392.83px 444.04px;" id="elcbddmuy15b" class="animable"></polygon><path d="M404.23,247.64l-41.05-7.09L363,245c-9.91,7.94-36.32,30.64-52.27,46.19,0,0-5.91,7.84-3.57,15.07L329.3,363l25.39-5.86-15.49-48,47.65-22.26c9.27-3.42,17.61-15.12,19.58-21.82C408.12,259.31,404.48,255,404.23,247.64Z" style="fill: rgb(38, 50, 56); transform-origin: 356.744px 301.775px;" id="elq0b9mtynpzq" class="animable"></path><path d="M371.55,292.67l9.77,131.06,24.26.61s4.17-38.7,3.65-63.42-.55-85.32-.55-85.32Z" style="fill: rgb(38, 50, 56); transform-origin: 390.412px 349.97px;" id="el2jqhhnzkn5v" class="animable"></path><path d="M404.23,247.64,417.05,250s.47,31.44-.44,34.6-8.55,12.2-8.55,12.2l-35.6,6.8V275.43Z" style="fill: rgb(38, 50, 56); transform-origin: 394.816px 275.62px;" id="el083brgns2kkl" class="animable"></path><polygon points="408.06 264.33 408.98 273.18 418.72 273.18 417.06 264.33 408.06 264.33" style="fill: rgb(38, 50, 56); transform-origin: 413.39px 268.755px;" id="el9qjogzei1xe" class="animable"></polygon><path d="M400.94,273.18a4.3,4.3,0,0,1-.31.67,19,19,0,0,1-1,1.86,26.21,26.21,0,0,1-5,6,44.88,44.88,0,0,1-9.59,6.45c-3.86,2-8.26,3.88-12.8,6l-23.32,10.69-7.1,3.18-1.94.84a3.1,3.1,0,0,1-.69.26,5.8,5.8,0,0,1,.65-.35l1.9-.93,7-3.34L372,293.67c4.54-2.12,8.94-4,12.79-5.95a45.89,45.89,0,0,0,9.56-6.29,27.47,27.47,0,0,0,5.05-5.83C400.43,274.07,400.88,273.15,400.94,273.18Z" style="fill: rgb(69, 90, 100); transform-origin: 370.065px 291.155px;" id="elt5m45rvdo9f" class="animable"></path><path d="M409.23,295a80.15,80.15,0,0,1-7.59,5.05,80.23,80.23,0,0,1-7.88,4.61,82.86,82.86,0,0,1,7.6-5.05A80.83,80.83,0,0,1,409.23,295Z" style="fill: rgb(69, 90, 100); transform-origin: 401.495px 299.83px;" id="elc0nazjh1pki" class="animable"></path><path d="M417.06,264.33a14.93,14.93,0,0,1,.62,2.46c.33,1.55.78,3.76,1.28,6.35l.06.28h-.3l-4.82,0-4.92,0h-.22l0-.21c-.25-2.6-.45-4.81-.57-6.38a13.46,13.46,0,0,1-.11-2.5,15.8,15.8,0,0,1,.4,2.47c.21,1.56.47,3.77.76,6.35l-.24-.21,4.92,0,4.82,0-.24.29c-.47-2.6-.85-4.82-1.1-6.39A16.61,16.61,0,0,1,417.06,264.33Z" style="fill: rgb(69, 90, 100); transform-origin: 413.542px 268.875px;" id="el7xyzjfwje5o" class="animable"></path><path d="M370.66,258.33l.43.05,1.28.22,4.86.87,16.87,3.18.23,0,0,.24c-.41,2.78-.86,5.76-1.32,8.85l0,.28-.28-.06-.27-.06c-9.73-2.23-18.45-4.26-24.24-5.64l-.18-.05.06-.17c.8-2.41,1.45-4.35,1.92-5.75.21-.62.38-1.12.52-1.51a3.36,3.36,0,0,1,.19-.49,3.55,3.55,0,0,1-.14.57c-.12.41-.27.92-.45,1.56l-1.72,5.72-.12-.22c5.81,1.28,14.54,3.24,24.28,5.47l.27.06-.32.22c.47-3.09.92-6.08,1.34-8.85l.2.28-16.67-3.37-4.88-1-1.32-.29A2.18,2.18,0,0,1,370.66,258.33Z" style="fill: rgb(69, 90, 100); transform-origin: 381.185px 265.155px;" id="elf0h5mwamf6q" class="animable"></path><path d="M322.68,307a10.8,10.8,0,0,1,2.69-.52,29.52,29.52,0,0,1,6.62,0,27.55,27.55,0,0,1,6.45,1.51,9.56,9.56,0,0,1,2.47,1.18,25.56,25.56,0,0,1-2.59-.83,34.53,34.53,0,0,0-6.39-1.34,37.86,37.86,0,0,0-6.52-.14A22.25,22.25,0,0,1,322.68,307Z" style="fill: rgb(69, 90, 100); transform-origin: 331.795px 307.732px;" id="eljpot5a364r" class="animable"></path><path d="M369.93,245.35c-.14,0-.15-.71,0-1.54s.36-1.48.5-1.46.15.72,0,1.54S370.07,245.38,369.93,245.35Z" style="fill: rgb(69, 90, 100); transform-origin: 370.18px 243.85px;" id="el9jxx2ugrjhr" class="animable"></path><path d="M371.93,246c-.14,0-.12-.83.05-1.8s.43-1.73.57-1.7.12.83-.05,1.8S372.07,246,371.93,246Z" style="fill: rgb(69, 90, 100); transform-origin: 372.24px 244.25px;" id="elqf09ektfac" class="animable"></path><path d="M388.53,248.73c-.14,0-.15-.77,0-1.67s.36-1.61.5-1.59.15.77,0,1.67S388.67,248.75,388.53,248.73Z" style="fill: rgb(69, 90, 100); transform-origin: 388.78px 247.1px;" id="el4sc9vwdcyhe" class="animable"></path><path d="M390.42,249.6c-.14,0-.15-.9,0-2s.36-1.92.51-1.9.14.9,0,2S390.56,249.62,390.42,249.6Z" style="fill: rgb(69, 90, 100); transform-origin: 390.675px 247.65px;" id="elk1b6dmjagej" class="animable"></path><path d="M406.43,252.36c-.14,0-.17-.87-.07-1.91s.31-1.86.45-1.84.18.86.07,1.9S406.58,252.37,406.43,252.36Z" style="fill: rgb(69, 90, 100); transform-origin: 406.622px 250.485px;" id="el84ub67bykec" class="animable"></path><path d="M408.86,253c-.15,0-.21-1-.14-2.14s.24-2.12.39-2.11a9,9,0,0,1-.25,4.25Z" style="fill: rgb(69, 90, 100); transform-origin: 408.973px 250.875px;" id="elamna4evgotj" class="animable"></path><path d="M350.35,198l30.46,8.8s4.65-17.19,6.88-27.32c2.45-11.09.49-16.86-6.9-22a12.55,12.55,0,0,0-5.62-2.17,13.35,13.35,0,0,0-13.79,8,117.18,117.18,0,0,0-4.93,14C353.54,187.2,350.35,198,350.35,198Z" style="fill: rgb(255, 114, 94); transform-origin: 369.52px 181.012px;" id="elmbjpjx394m" class="animable"></path><path d="M387.69,179.5a2,2,0,0,1-.07.52l-.31,1.51c-.28,1.31-.7,3.22-1.27,5.64-1.14,4.83-2.86,11.67-5,19.71l-.06.24-.23-.07-19.18-5.52-11.29-3.27-.25-.07.08-.24c3-10,5.53-18.77,7.52-24.94,1-3.08,1.93-5.5,2.61-7.15.34-.82.62-1.44.81-1.87a2.89,2.89,0,0,1,.33-.62,5.58,5.58,0,0,1-.24.66l-.74,1.9c-.62,1.66-1.49,4.09-2.46,7.18-1.9,6.18-4.37,14.95-7.35,25l-.17-.31L361.71,201l19.17,5.56-.29.17c2.18-8,4-14.85,5.17-19.66.6-2.37,1.07-4.26,1.41-5.61.15-.62.28-1.11.37-1.49A3.81,3.81,0,0,1,387.69,179.5Z" style="fill: rgb(38, 50, 56); transform-origin: 368.86px 185.245px;" id="elas7ms3hishd" class="animable"></path><path d="M385.65,162.76c-.08.05-.68-.86-1.93-2.07a16.21,16.21,0,0,0-5.67-3.61,16.51,16.51,0,0,0-6.65-1c-1.73.11-2.79.41-2.81.33s.25-.15.72-.29a12.49,12.49,0,0,1,2.06-.4A14.9,14.9,0,0,1,384,160.43a12.37,12.37,0,0,1,1.3,1.65A2.56,2.56,0,0,1,385.65,162.76Z" style="fill: rgb(38, 50, 56); transform-origin: 377.119px 159.194px;" id="elmx050pmihv" class="animable"></path><path d="M353.4,199l-1.54,5.11-29.14-12.61-6.3,9.68s22.88,17,30.05,22.41,15.47,3.53,20.29-2.81c4.95-6.51,6.87-15.85,6.87-15.85Z" style="fill: rgb(255, 190, 157); transform-origin: 345.025px 209.132px;" id="eldoibmjg5ng6" class="animable"></path><path d="M355,210.5c-.15,0-.5-1.53-1.37-3.27s-1.88-3-1.76-3.08A8.83,8.83,0,0,1,355,210.5Z" style="fill: rgb(235, 153, 110); transform-origin: 353.43px 207.325px;" id="elx0x1pgy5j7" class="animable"></path><path d="M327.25,193.84l-3.85-2.66c-2-6.09-5.85-17.12-7-16.79s-1.75,1.45-1.4,3.8c.85,5.61-.54,8.09-3.82,7.35-1.13-.26-10.95-1.83-10.95-1.83s-2.71,1.55,0,4.21c0,0-1.33,3.46,2.29,4.29,0,0,.45,3.92,3.16,4.08a71.26,71.26,0,0,0,9,3.88l4.89,2.93Z" style="fill: rgb(255, 190, 157); transform-origin: 313.138px 188.741px;" id="eloa9nrudchj" class="animable"></path><path d="M307.7,190.08c0,.19-1.95-.24-4.18-1-.8-.26-1.55-.51-2.17-.66l.08-.43.37.08-.08.39a4.34,4.34,0,0,1-1.51-.59,5,5,0,0,1,1.61.2l-.08.4-.38,0,.08-.43a15.55,15.55,0,0,1,2.25.6A32.55,32.55,0,0,1,307.7,190.08Z" style="fill: rgb(235, 153, 110); transform-origin: 303.955px 188.995px;" id="elrm8146bpgm" class="animable"></path><path d="M308.44,194.5a7.74,7.74,0,0,1-3.09-.81,7.91,7.91,0,0,1-2.82-1.51,13.65,13.65,0,0,1,3,1A14.09,14.09,0,0,1,308.44,194.5Z" style="fill: rgb(235, 153, 110); transform-origin: 305.485px 193.34px;" id="eliagssn52fjl" class="animable"></path></g><defs>     <filter id="active" height="200%">         <feMorphology in="SourceAlpha" result="DILATED" operator="dilate" radius="2"></feMorphology>                <feFlood flood-color="#32DFEC" flood-opacity="1" result="PINK"></feFlood>        <feComposite in="PINK" in2="DILATED" operator="in" result="OUTLINE"></feComposite>        <feMerge>            <feMergeNode in="OUTLINE"></feMergeNode>            <feMergeNode in="SourceGraphic"></feMergeNode>        </feMerge>    </filter>    <filter id="hover" height="200%">        <feMorphology in="SourceAlpha" result="DILATED" operator="dilate" radius="2"></feMorphology>                <feFlood flood-color="#ff0000" flood-opacity="0.5" result="PINK"></feFlood>        <feComposite in="PINK" in2="DILATED" operator="in" result="OUTLINE"></feComposite>        <feMerge>            <feMergeNode in="OUTLINE"></feMergeNode>            <feMergeNode in="SourceGraphic"></feMergeNode>        </feMerge>            <feColorMatrix type="matrix" values="0   0   0   0   0                0   1   0   0   0                0   0   0   0   0                0   0   0   1   0 "></feColorMatrix>    </filter></defs></svg>