<svg xmlns="http://www.w3.org/2000/svg" width="160" height="160" viewBox="0 0 160 160">
  <!-- Map-OS, adesivo "notebook". Apache-2.0, ver assets/src/stickers/README.md -->
  <defs>
    <g id="arte">
      <rect x="32" y="30" width="96" height="66" rx="7" fill="#79628c"/>
      <rect x="40" y="38" width="80" height="50" rx="3" fill="#fff"/>
      <path fill="#fa7faa" d="M24 98L136 98L148 117C150 121 147 124 143 124L17 124C13 124 10 121 12 117Z"/>
      <path fill="#c2ef4e" d="M134 15Q136.4 23.6 145 26Q136.4 28.4 134 37Q131.6 28.4 123 26Q131.6 23.6 134 15Z"/>
    </g>
  </defs>
  <g transform="rotate(-6 80 80)">
    <!-- Contorno branco de recorte -->
    <use href="#arte" fill="#fff" stroke="#fff" stroke-width="16" stroke-linejoin="round" stroke-linecap="round"/>
    <!-- Arte com traço ink -->
    <g stroke="#1f1633" stroke-width="3" stroke-linejoin="round" stroke-linecap="round">
      <use href="#arte"/>
    </g>
    <!-- Detalhes -->
    <g stroke="#1f1633" stroke-width="2.5" stroke-linejoin="round" stroke-linecap="round" fill="none">
      <path d="M68 110L92 110"/>
      <g stroke="none">
        <rect x="47" y="46" width="30" height="6" rx="3" fill="#fa7faa"/>
        <rect x="55" y="57" width="44" height="6" rx="3" fill="#c2ef4e"/>
        <rect x="55" y="68" width="26" height="6" rx="3" fill="#79628c"/>
        <rect x="85" y="68" width="14" height="6" rx="3" fill="#fa7faa"/>
      </g>
      <path stroke="#1f1633" d="M47 80L64 80"/>
    </g>
  </g>
</svg>
